<svg id="Group_314" data-name="Group 314" xmlns="http://www.w3.org/2000/svg" xmlns:xlink="http://www.w3.org/1999/xlink" width="41.48" height="38.517" viewBox="0 0 41.48 38.517">
  <defs>
    <clipPath id="clip-path">
      <rect id="Rectangle_157" data-name="Rectangle 157" width="41.48" height="38.517" fill="none" stroke="#7473be" stroke-width="1.6"/>
    </clipPath>
  </defs>
  <g id="Group_314-2" data-name="Group 314" clip-path="url(#clip-path)">
    <path id="Path_406" data-name="Path 406" d="M48.64,27.61l.884-5.238A1.577,1.577,0,0,1,51.087,21h0a1.578,1.578,0,0,1,1.578,1.578v9.787A2.959,2.959,0,0,1,51.8,34.46l-5.8,5.8" transform="translate(-11.927 -5.445)" fill="none" stroke="#7473be" stroke-linecap="round" stroke-linejoin="round" stroke-width="1.6"/>
    <path id="Path_407" data-name="Path 407" d="M31,42.54V41.191a6.627,6.627,0,0,1,5.268-6.521,13.382,13.382,0,0,1,1.416-.2,2.979,2.979,0,0,0,1.844-.852L42.747,30.4a1.925,1.925,0,0,1,2.552-.2,1.853,1.853,0,0,1,.142,2.747L40.285,38.1" transform="translate(-8.038 -7.727)" fill="none" stroke="#7473be" stroke-linecap="round" stroke-linejoin="round" stroke-width="1.6"/>
    <path id="Path_408" data-name="Path 408" d="M44.333,49.222V47H31v2.963" transform="translate(-8.038 -12.186)" fill="none" stroke="#7473be" stroke-linecap="round" stroke-linejoin="round" stroke-width="1.6"/>
    <path id="Path_409" data-name="Path 409" d="M5.027,27.61l-.884-5.238A1.577,1.577,0,0,0,2.579,21h0A1.578,1.578,0,0,0,1,22.578v9.787a2.959,2.959,0,0,0,.868,2.095l5.8,5.8" transform="translate(-0.259 -5.445)" fill="none" stroke="#7473be" stroke-linecap="round" stroke-linejoin="round" stroke-width="1.6"/>
    <path id="Path_410" data-name="Path 410" d="M19.755,42.54V41.191a6.627,6.627,0,0,0-5.268-6.521,13.382,13.382,0,0,0-1.416-.2,2.979,2.979,0,0,1-1.844-.852L8.008,30.4a1.925,1.925,0,0,0-2.552-.2,1.853,1.853,0,0,0-.142,2.747L10.47,38.1" transform="translate(-1.237 -7.727)" fill="none" stroke="#7473be" stroke-linecap="round" stroke-linejoin="round" stroke-width="1.6"/>
    <path id="Path_411" data-name="Path 411" d="M7,49.222V47H20.333v2.963" transform="translate(-1.815 -12.186)" fill="none" stroke="#7473be" stroke-linecap="round" stroke-linejoin="round" stroke-width="1.6"/>
    <circle id="Ellipse_49" data-name="Ellipse 49" cx="3.704" cy="3.704" r="3.704" transform="translate(17.036 6.666)" fill="none" stroke="#7473be" stroke-linejoin="round" stroke-width="1.6"/>
    <circle id="Ellipse_50" data-name="Ellipse 50" cx="3.704" cy="3.704" r="3.704" transform="translate(25.925 0.741)" fill="none" stroke="#7473be" stroke-linejoin="round" stroke-width="1.6"/>
    <path id="Path_412" data-name="Path 412" d="M33.3,28.407v-3.79a2.964,2.964,0,0,0-2.026-2.811L28.851,21l-3.7,3.7-3.7-3.7-2.418.806A2.964,2.964,0,0,0,17,24.617v3.79" transform="translate(-4.408 -5.445)" fill="none" stroke="#7473be" stroke-linecap="round" stroke-linejoin="round" stroke-width="1.6"/>
    <line id="Line_57" data-name="Line 57" y2="4.444" transform="translate(15.555 19.999)" fill="none" stroke="#7473be" stroke-linecap="round" stroke-linejoin="round" stroke-width="1.6"/>
    <line id="Line_58" data-name="Line 58" y2="4.444" transform="translate(25.925 19.999)" fill="none" stroke="#7473be" stroke-linecap="round" stroke-linejoin="round" stroke-width="1.6"/>
    <circle id="Ellipse_51" data-name="Ellipse 51" cx="3.704" cy="3.704" r="3.704" transform="translate(8.148 0.741)" fill="none" stroke="#7473be" stroke-linejoin="round" stroke-width="1.6"/>
    <line id="Line_59" data-name="Line 59" y2="2.963" transform="translate(6.666 14.074)" fill="none" stroke="#7473be" stroke-linecap="round" stroke-linejoin="round" stroke-width="1.6"/>
    <line id="Line_60" data-name="Line 60" y2="2.963" transform="translate(34.814 14.074)" fill="none" stroke="#7473be" stroke-linecap="round" stroke-linejoin="round" stroke-width="1.6"/>
    <path id="Path_413" data-name="Path 413" d="M47.337,16.205a2.959,2.959,0,0,0-1.993-2.4L42.926,13l-3.7,3.7L37,14.481" transform="translate(-9.594 -3.371)" fill="none" stroke="#7473be" stroke-linecap="round" stroke-linejoin="round" stroke-width="1.6"/>
    <path id="Path_414" data-name="Path 414" d="M15.381,14.481,13.159,16.7,9.456,13l-2.418.806a2.961,2.961,0,0,0-1.993,2.4" transform="translate(-1.308 -3.371)" fill="none" stroke="#7473be" stroke-linecap="round" stroke-linejoin="round" stroke-width="1.6"/>
  </g>
</svg>
