<svg xmlns="http://www.w3.org/2000/svg" xmlns:xlink="http://www.w3.org/1999/xlink" width="31.144" height="46.558" viewBox="0 0 31.144 46.558">
  <defs>
    <clipPath id="clip-path">
      <rect id="Rectangle_170" data-name="Rectangle 170" width="31.144" height="46.558" fill="none" stroke="#0072ca" stroke-width="1.6"/>
    </clipPath>
  </defs>
  <g id="Group_333" data-name="Group 333" transform="translate(0 0)">
    <rect id="Rectangle_168" data-name="Rectangle 168" width="3.453" height="3.453" transform="translate(8.014 34.422)" fill="none" stroke="#0072ca" stroke-miterlimit="10" stroke-width="1.6"/>
    <line id="Line_91" data-name="Line 91" x2="6.904" transform="translate(16.446 33.744)" fill="none" stroke="#0072ca" stroke-miterlimit="10" stroke-width="1.6"/>
    <line id="Line_92" data-name="Line 92" x2="6.904" transform="translate(16.446 39.725)" fill="none" stroke="#0072ca" stroke-miterlimit="10" stroke-width="1.6"/>
    <path id="Path_447" data-name="Path 447" d="M11.611,24.444l-3.037,3L6.983,25.833" transform="translate(0.605 1.416)" fill="none" stroke="#0072ca" stroke-miterlimit="10" stroke-width="1.6"/>
    <line id="Line_93" data-name="Line 93" x2="6.904" transform="translate(16.43 25.14)" fill="none" stroke="#0072ca" stroke-miterlimit="10" stroke-width="1.6"/>
    <line id="Line_94" data-name="Line 94" x2="6.904" transform="translate(16.43 29.442)" fill="none" stroke="#0072ca" stroke-miterlimit="10" stroke-width="1.6"/>
    <rect id="Rectangle_169" data-name="Rectangle 169" width="3.453" height="3.453" transform="translate(7.999 16.873)" fill="none" stroke="#0072ca" stroke-miterlimit="10" stroke-width="1.6"/>
    <line id="Line_95" data-name="Line 95" x2="6.904" transform="translate(16.43 16.54)" fill="none" stroke="#0072ca" stroke-miterlimit="10" stroke-width="1.6"/>
    <line id="Line_96" data-name="Line 96" x2="6.904" transform="translate(16.43 20.842)" fill="none" stroke="#0072ca" stroke-miterlimit="10" stroke-width="1.6"/>
    <g id="Group_334" data-name="Group 334" transform="translate(0 0)">
      <g id="Group_333-2" data-name="Group 333" clip-path="url(#clip-path)">
        <path id="Path_448" data-name="Path 448" d="M25.314,7.05H30.6v38.7H.5V7.05H6.267" transform="translate(0.02 0.283)" fill="none" stroke="#0072ca" stroke-miterlimit="10" stroke-width="1.6"/>
        <path id="Path_449" data-name="Path 449" d="M18.471,3.492h0a2.991,2.991,0,1,0-5.982,0H9.17V9.462l12.587,0V3.493Z" transform="translate(0.367 0.02)" fill="none" stroke="#0072ca" stroke-miterlimit="10" stroke-width="1.6"/>
      </g>
    </g>
  </g>
</svg>
