<svg id="Group_312" data-name="Group 312" xmlns="http://www.w3.org/2000/svg" xmlns:xlink="http://www.w3.org/1999/xlink" width="41.48" height="41.068" viewBox="0 0 41.48 41.068">
  <defs>
    <clipPath id="clip-path">
      <rect id="Rectangle_156" data-name="Rectangle 156" width="41.48" height="41.068" fill="none" stroke="#41ab6e" stroke-width="1.6"/>
    </clipPath>
  </defs>
  <path id="Path_391" data-name="Path 391" d="M29.883,21.687l7.338-1.573Z" transform="translate(-0.091)" fill="none" stroke="#41ab6e" stroke-miterlimit="10" stroke-width="1.6"/>
  <path id="Path_392" data-name="Path 392" d="M20.4,27.531,26.257,23.3Z" transform="translate(-0.052)" fill="none" stroke="#41ab6e" stroke-miterlimit="10" stroke-width="1.6"/>
  <g id="Group_313" data-name="Group 313" transform="translate(0 0)">
    <g id="Group_312-2" data-name="Group 312" clip-path="url(#clip-path)">
      <path id="Path_393" data-name="Path 393" d="M20.777,28.719a2.024,2.024,0,1,1-2.025-2.029A2.027,2.027,0,0,1,20.777,28.719Z" transform="translate(-0.037 0)" fill="none" stroke="#41ab6e" stroke-miterlimit="10" stroke-width="1.6"/>
      <path id="Path_394" data-name="Path 394" d="M29.919,22.112a2.024,2.024,0,1,1-2.025-2.029A2.027,2.027,0,0,1,29.919,22.112Z" transform="translate(-0.057 0)" fill="none" stroke="#41ab6e" stroke-miterlimit="10" stroke-width="1.6"/>
      <path id="Path_395" data-name="Path 395" d="M41.062,19.723a2.024,2.024,0,1,1-2.025-2.029A2.027,2.027,0,0,1,41.062,19.723Z" transform="translate(-0.081 0)" fill="none" stroke="#41ab6e" stroke-miterlimit="10" stroke-width="1.6"/>
      <path id="Path_396" data-name="Path 396" d="M18.757,33.363v0Z" transform="translate(-0.041 0)" fill="none" stroke="#41ab6e" stroke-miterlimit="10" stroke-width="1.6"/>
      <path id="Path_397" data-name="Path 397" d="M22.814,31.552v0Z" transform="translate(-0.05 0)" fill="none" stroke="#41ab6e" stroke-miterlimit="10" stroke-width="1.6"/>
      <path id="Path_398" data-name="Path 398" d="M26.871,28.719v0Z" transform="translate(-0.059 0)" fill="none" stroke="#41ab6e" stroke-miterlimit="10" stroke-width="1.6"/>
      <path id="Path_399" data-name="Path 399" d="M30.928,26.618v0Z" transform="translate(-0.068 0)" fill="none" stroke="#41ab6e" stroke-miterlimit="10" stroke-width="1.6"/>
      <path id="Path_400" data-name="Path 400" d="M34.986,26.044v0Z" transform="translate(-0.077 0)" fill="none" stroke="#41ab6e" stroke-miterlimit="10" stroke-width="1.6"/>
      <path id="Path_401" data-name="Path 401" d="M39.043,25.471v0Z" transform="translate(-0.085 0)" fill="none" stroke="#41ab6e" stroke-miterlimit="10" stroke-width="1.6"/>
      <path id="Path_402" data-name="Path 402" d="M17.369.5C6.8.5.5,6.328.5,16.091a20.046,20.046,0,0,0,2.344,9.252A9.446,9.446,0,0,1,4.02,28.884a9.446,9.446,0,0,0-1.176-3.541A20.046,20.046,0,0,1,.5,16.091C.5,6.328,6.8.5,17.369.5Z" transform="translate(-0.001 0)" fill="none" stroke="#41ab6e" stroke-miterlimit="10" stroke-width="1.6"/>
      <path id="Path_403" data-name="Path 403" d="M15.659,36.31H3.688a4.041,4.041,0,0,1,1.1-2.57c1.026-.881,3.076-3.6,3.076-4.772,0-4.112-3.443-6.388-3.443-12.629,0-7.05,4-11.891,12.864-12.04a2.118,2.118,0,0,1,1.465.569c1.942,1.782,5.3,4.9,7.3,6.754A2.63,2.63,0,0,1,23.318,16c-2.51-.975-6.771-2.4-8.572-1.646-1.021.587.588,2.355,2.569,3.671,2.246,1.492,3.132,3.9,3.917,5.213-.785-1.31-1.671-3.721-3.917-5.213-1.982-1.316-3.59-3.084-2.569-3.671,1.8-.754,6.062.671,8.572,1.646a2.63,2.63,0,0,0,2.733-4.381c-2-1.855-5.36-4.972-7.3-6.754A2.118,2.118,0,0,0,17.284,4.3C8.419,4.448,4.42,9.289,4.42,16.339c0,6.241,3.443,8.517,3.443,12.629,0,1.175-2.051,3.891-3.076,4.772a4.041,4.041,0,0,0-1.1,2.57Z" transform="translate(-0.008 0)" fill="none" stroke="#41ab6e" stroke-miterlimit="10" stroke-width="1.6"/>
      <path id="Path_404" data-name="Path 404" d="M16.132,7.872l2.109,1.473Z" transform="translate(-0.035 0)" fill="none" stroke="#41ab6e" stroke-miterlimit="10" stroke-width="1.6"/>
      <path id="Path_405" data-name="Path 405" d="M41.474,40.568H1.247V36.31h0v4.258Z" transform="translate(-0.003 0)" fill="none" stroke="#41ab6e" stroke-miterlimit="10" stroke-width="1.6"/>
    </g>
  </g>
</svg>
