<svg id="Group_227" data-name="Group 227" xmlns="http://www.w3.org/2000/svg" xmlns:xlink="http://www.w3.org/1999/xlink" width="41.6" height="41.6" viewBox="0 0 41.6 41.6">
  <defs>
    <clipPath id="clip-path">
      <rect id="Rectangle_137" data-name="Rectangle 137" width="41.6" height="41.6" transform="translate(0 0)" fill="none"/>
    </clipPath>
  </defs>
  <g id="Group_227-2" data-name="Group 227" clip-path="url(#clip-path)">
    <circle id="Ellipse_14" data-name="Ellipse 14" cx="4" cy="4" r="4" transform="translate(16.8 23.2)" fill="none" stroke="#0065c5" stroke-linejoin="round" stroke-width="1.6"/>
    <circle id="Ellipse_15" data-name="Ellipse 15" cx="4" cy="4" r="4" transform="translate(28 18.4)" fill="none" stroke="#0065c5" stroke-linejoin="round" stroke-width="1.6"/>
    <path id="Path_338" data-name="Path 338" d="M29.6,40.8V36.706a3.2,3.2,0,0,0-2.188-3.035L24.8,32.8l-4,4-4-4-2.612.871A3.2,3.2,0,0,0,12,36.706V40.8" fill="none" stroke="#0065c5" stroke-linecap="round" stroke-linejoin="round" stroke-width="1.6"/>
    <path id="Path_339" data-name="Path 339" d="M28,28l4,4,4-4,2.612.871A3.2,3.2,0,0,1,40.8,31.906V37.6" fill="none" stroke="#0065c5" stroke-linecap="round" stroke-linejoin="round" stroke-width="1.6"/>
    <line id="Line_38" data-name="Line 38" y2="3.2" transform="translate(15.2 37.6)" fill="none" stroke="#0065c5" stroke-linecap="round" stroke-linejoin="round" stroke-width="1.6"/>
    <line id="Line_39" data-name="Line 39" y2="3.2" transform="translate(26.4 37.6)" fill="none" stroke="#0065c5" stroke-linecap="round" stroke-linejoin="round" stroke-width="1.6"/>
    <line id="Line_40" data-name="Line 40" y2="4.8" transform="translate(37.6 32.8)" fill="none" stroke="#0065c5" stroke-linecap="round" stroke-linejoin="round" stroke-width="1.6"/>
    <line id="Line_41" data-name="Line 41" y2="4.8" transform="translate(4 32.8)" fill="none" stroke="#0065c5" stroke-linecap="round" stroke-linejoin="round" stroke-width="1.6"/>
    <circle id="Ellipse_16" data-name="Ellipse 16" cx="4" cy="4" r="4" transform="translate(5.6 18.4)" fill="none" stroke="#0065c5" stroke-linejoin="round" stroke-width="1.6"/>
    <path id="Path_340" data-name="Path 340" d="M13.6,28l-4,4-4-4-2.612.871A3.2,3.2,0,0,0,.8,31.906V37.6" fill="none" stroke="#0065c5" stroke-linecap="round" stroke-linejoin="round" stroke-width="1.6"/>
    <path id="Path_341" data-name="Path 341" d="M22.4,18.4H19.2a1.6,1.6,0,0,1-1.6-1.6V13.6H24v3.2A1.6,1.6,0,0,1,22.4,18.4Z" fill="none" stroke="#0065c5" stroke-linecap="round" stroke-linejoin="round" stroke-width="1.6"/>
    <line id="Line_42" data-name="Line 42" x2="3.2" transform="translate(30.4 7.2)" fill="none" stroke="#0065c5" stroke-linecap="round" stroke-linejoin="round" stroke-width="1.6"/>
    <line id="Line_43" data-name="Line 43" x2="3.2" transform="translate(8 7.2)" fill="none" stroke="#0065c5" stroke-linecap="round" stroke-linejoin="round" stroke-width="1.6"/>
    <line id="Line_44" data-name="Line 44" y1="1.2" x2="2.078" transform="translate(29.114 1.2)" fill="none" stroke="#0065c5" stroke-linecap="round" stroke-linejoin="round" stroke-width="1.6"/>
    <line id="Line_45" data-name="Line 45" y1="1.2" x2="2.078" transform="translate(10.408 12)" fill="none" stroke="#0065c5" stroke-linecap="round" stroke-linejoin="round" stroke-width="1.6"/>
    <line id="Line_46" data-name="Line 46" x1="2.078" y1="1.2" transform="translate(10.408 1.2)" fill="none" stroke="#0065c5" stroke-linecap="round" stroke-linejoin="round" stroke-width="1.6"/>
    <line id="Line_47" data-name="Line 47" x1="2.078" y1="1.2" transform="translate(29.114 12)" fill="none" stroke="#0065c5" stroke-linecap="round" stroke-linejoin="round" stroke-width="1.6"/>
    <path id="Path_342" data-name="Path 342" d="M24,13.6c1.238-1.684,3.2-3.34,3.2-6.4a6.4,6.4,0,0,0-12.8,0c0,3.06,1.962,4.716,3.2,6.4Z" fill="none" stroke="#0065c5" stroke-linecap="round" stroke-linejoin="round" stroke-width="1.6"/>
    <line id="Line_48" data-name="Line 48" y2="4.8" transform="translate(20.8 8.8)" fill="none" stroke="#0065c5" stroke-linecap="round" stroke-linejoin="round" stroke-width="1.6"/>
    <path id="Path_343" data-name="Path 343" d="M22.4,7.2,20.8,8.8,19.2,7.2" fill="none" stroke="#0065c5" stroke-linecap="round" stroke-linejoin="round" stroke-width="1.6"/>
  </g>
</svg>
