<svg id="icon" xmlns="http://www.w3.org/2000/svg" xmlns:xlink="http://www.w3.org/1999/xlink" width="60" height="52.873" viewBox="0 0 60 52.873">
  <defs>
    <clipPath id="clip-path">
      <rect id="Rectangle_62" data-name="Rectangle 62" width="60" height="52.873" fill="none" stroke="#3cb27a" stroke-width="1.5"/>
    </clipPath>
  </defs>
  <g id="Group_25" data-name="Group 25" transform="translate(0 0)" clip-path="url(#clip-path)">
    <path id="Path_248" data-name="Path 248" d="M38.82,27.722l-2.651,1.289L24.776,9.278,38.82.5" transform="translate(20.271 0.409)" fill="none" stroke="#3cb27a" stroke-linecap="round" stroke-linejoin="round" stroke-width="1.5"/>
    <path id="Path_249" data-name="Path 249" d="M.5,27.722l2.651,1.289L14.544,9.278.5.5" transform="translate(0.409 0.409)" fill="none" stroke="#3cb27a" stroke-linecap="round" stroke-linejoin="round" stroke-width="1.5"/>
    <path id="Path_250" data-name="Path 250" d="M7.91,5.962l3.358,1.747a5.117,5.117,0,0,0,2.342.585,5.217,5.217,0,0,0,1.255-.167,4.961,4.961,0,0,1,3.658.46" transform="translate(6.472 4.878)" fill="none" stroke="#3cb27a" stroke-linecap="round" stroke-linejoin="round" stroke-width="1.5"/>
    <line id="Line_11" data-name="Line 11" x1="19.049" y1="10.9" transform="translate(31.267 17.06)" fill="none" stroke="#3cb27a" stroke-linecap="round" stroke-linejoin="round" stroke-width="1.5"/>
    <line id="Line_12" data-name="Line 12" x1="6.664" y1="4.404" transform="translate(4.599 27.785)" fill="none" stroke="#3cb27a" stroke-linecap="round" stroke-linejoin="round" stroke-width="1.5"/>
    <path id="Path_251" data-name="Path 251" d="M33.77,15.538a3.232,3.232,0,1,1-3.233,5.6L20.223,15.182" transform="translate(16.546 12.421)" fill="none" stroke="#3cb27a" stroke-linecap="round" stroke-linejoin="round" stroke-width="1.5"/>
    <path id="Path_252" data-name="Path 252" d="M21.678,15.182l8.915,5.147a3.232,3.232,0,1,1-3.233,5.6L18.445,20.78" transform="translate(15.091 12.421)" fill="none" stroke="#3cb27a" stroke-linecap="round" stroke-linejoin="round" stroke-width="1.5"/>
    <path id="Path_253" data-name="Path 253" d="M19.9,18.262l7.515,4.34a3.232,3.232,0,1,1-3.231,5.6l-7.516-4.34" transform="translate(13.637 14.941)" fill="none" stroke="#3cb27a" stroke-linecap="round" stroke-linejoin="round" stroke-width="1.5"/>
    <path id="Path_254" data-name="Path 254" d="M16.667,21.341l6.116,3.531a3.232,3.232,0,0,1-3.233,5.6l-1.629-.94" transform="translate(13.637 17.461)" fill="none" stroke="#3cb27a" stroke-linecap="round" stroke-linejoin="round" stroke-width="1.5"/>
    <path id="Path_255" data-name="Path 255" d="M37.527,7.121,31.671,8.185a4,4,0,0,1-1.964-.138L22.558,5.676a4.074,4.074,0,0,0-4.525,1.4l-6.9,9.056a3.271,3.271,0,0,0,5.135,4.049l6.415-7.591" transform="translate(8.587 4.473)" fill="none" stroke="#3cb27a" stroke-linecap="round" stroke-linejoin="round" stroke-width="1.5"/>
    <line id="Line_13" data-name="Line 13" y1="2.225" x2="3.478" transform="translate(51.719 27.283)" fill="none" stroke="#3cb27a" stroke-linecap="round" stroke-linejoin="round" stroke-width="1.5"/>
    <path id="Path_256" data-name="Path 256" d="M11.628,22.7l-1.511,2.08a3.233,3.233,0,0,1-5.231-3.8L6.4,18.9a3.233,3.233,0,1,1,5.231,3.8Z" transform="translate(3.492 14.373)" fill="none" stroke="#3cb27a" stroke-linecap="round" stroke-linejoin="round" stroke-width="1.5"/>
    <path id="Path_257" data-name="Path 257" d="M14.524,24.805l-1.511,2.078a3.233,3.233,0,1,1-5.231-3.8l1.511-2.078a3.233,3.233,0,1,1,5.231,3.8Z" transform="translate(5.862 16.095)" fill="none" stroke="#3cb27a" stroke-linecap="round" stroke-linejoin="round" stroke-width="1.5"/>
    <path id="Path_258" data-name="Path 258" d="M17.42,26.909l-1.511,2.08a3.233,3.233,0,0,1-5.231-3.8l1.511-2.078a3.233,3.233,0,1,1,5.231,3.8Z" transform="translate(8.231 17.816)" fill="none" stroke="#3cb27a" stroke-linecap="round" stroke-linejoin="round" stroke-width="1.5"/>
    <path id="Path_259" data-name="Path 259" d="M20.316,29.013,18.8,31.091a3.233,3.233,0,1,1-5.231-3.8l1.511-2.078a3.233,3.233,0,1,1,5.231,3.8Z" transform="translate(10.601 19.538)" fill="none" stroke="#3cb27a" stroke-linecap="round" stroke-linejoin="round" stroke-width="1.5"/>
  </g>
</svg>
