<svg id="Group_377" data-name="Group 377" xmlns="http://www.w3.org/2000/svg" xmlns:xlink="http://www.w3.org/1999/xlink" width="42.087" height="30.959" viewBox="0 0 42.087 30.959">
  <defs>
    <clipPath id="clip-path">
      <rect id="Rectangle_184" data-name="Rectangle 184" width="42.087" height="30.959" fill="#3cb27a"/>
    </clipPath>
  </defs>
  <g id="Group_376" data-name="Group 376" clip-path="url(#clip-path)">
    <path id="Path_516" data-name="Path 516" d="M5.688,4.476H7.975V2.927H5.688Zm31.1,5.4h-3.27V11.43h3.27ZM32.641,8.124h5.028A.879.879,0,0,1,38.547,9v3.306a.879.879,0,0,1-.879.879H32.641a.879.879,0,0,1-.879-.879V9a.879.879,0,0,1,.879-.879M30.8,17.043H40.33V9.286a3.057,3.057,0,0,0-3.052-3.052h-5.03a3.479,3.479,0,0,1-3.071-1.8l-1-1.776a1.688,1.688,0,0,0-1.54-.9H15.448a1.688,1.688,0,0,0-1.54.9l-1,1.776a3.479,3.479,0,0,1-3.071,1.8H4.809A3.057,3.057,0,0,0,1.757,9.286v7.553h9.548a9.8,9.8,0,0,1,19.5.2ZM40.33,18.8H30.8A9.8,9.8,0,0,1,14.115,24.85l-.046-.05a9.768,9.768,0,0,1-2.8-6.2H1.757V26.15A3.062,3.062,0,0,0,4.809,29.2H37.278a3.057,3.057,0,0,0,3.052-3.052V18.8ZM21.043,11.894A6.011,6.011,0,0,1,25.3,13.66l0,0a6.018,6.018,0,0,1,0,8.516l0,0a6.017,6.017,0,0,1-8.515,0l0,0a6.018,6.018,0,0,1,0-8.516l0,0A6.01,6.01,0,0,1,21.043,11.894ZM24.064,14.9a4.28,4.28,0,1,0,1.249,3.022A4.256,4.256,0,0,0,24.064,14.9Zm2.666-2.666a8.041,8.041,0,0,0-13.726,5.484v.023l0,.182a8.021,8.021,0,0,0,2.313,5.648l.041.038A8.042,8.042,0,0,0,26.731,12.234ZM16.085,5.37a.879.879,0,1,1,0-1.757H26A.879.879,0,1,1,26,5.37ZM9.733,4.477h.106a1.688,1.688,0,0,0,1.54-.9l1-1.776A3.479,3.479,0,0,1,15.448,0H26.639A3.479,3.479,0,0,1,29.71,1.8l1,1.776a1.688,1.688,0,0,0,1.54.9h5.03a4.8,4.8,0,0,1,3.394,1.412l0,0a4.8,4.8,0,0,1,1.411,3.392V26.15a4.8,4.8,0,0,1-1.412,3.394l0,0a4.794,4.794,0,0,1-3.392,1.411H4.809A4.822,4.822,0,0,1,0,26.15V9.286A4.8,4.8,0,0,1,1.412,5.892l0,0A4.817,4.817,0,0,1,3.931,4.558V2.049a.879.879,0,0,1,.879-.879H8.854a.879.879,0,0,1,.879.879V4.477Z" transform="translate(0 0)" fill="#3cb27a"/>
  </g>
</svg>
