<svg xmlns="http://www.w3.org/2000/svg" xmlns:xlink="http://www.w3.org/1999/xlink" width="41.48" height="41.54" viewBox="0 0 41.48 41.54">
  <defs>
    <clipPath id="clip-path">
      <rect id="Rectangle_165" data-name="Rectangle 165" width="41.48" height="37.069" fill="none" stroke="#f9b00d" stroke-width="1"/>
    </clipPath>
    <clipPath id="clip-path-2">
      <rect id="Rectangle_166" data-name="Rectangle 166" width="41.48" height="41.54" fill="none" stroke="#f9b00d" stroke-width="1"/>
    </clipPath>
  </defs>
  <g id="Group_330" data-name="Group 330" transform="translate(-814 -1496.214)">
    <g id="Group_327" data-name="Group 327" transform="translate(814 1498.214)">
      <g id="Group_326" data-name="Group 326" clip-path="url(#clip-path)">
        <line id="Line_83" data-name="Line 83" y2="15.446" transform="translate(8.116 20.852)" fill="none" stroke="#f9b00d" stroke-linecap="round" stroke-miterlimit="10" stroke-width="2"/>
      </g>
    </g>
    <line id="Line_84" data-name="Line 84" x1="8.417" y1="7" transform="translate(825.437 1509.072)" fill="none" stroke="#f9b00d" stroke-linecap="round" stroke-linejoin="round" stroke-width="2"/>
    <g id="Group_329" data-name="Group 329" transform="translate(814 1496.214)">
      <g id="Group_328" data-name="Group 328" transform="translate(0 0)" clip-path="url(#clip-path-2)">
        <path id="Path_434" data-name="Path 434" d="M8.16,6.616A2.508,2.508,0,0,1,6,4.237V3.428A2.578,2.578,0,0,1,8.705,1,2.578,2.578,0,0,1,11.41,3.428v.809a2.314,2.314,0,0,1-.9,1.8V8.284h1.924A4.035,4.035,0,0,1,15.252,9.4l6.917,6.772" transform="translate(-0.59 1.604)" fill="none" stroke="#f9b00d" stroke-linecap="round" stroke-miterlimit="10" stroke-width="2"/>
        <line id="Line_85" data-name="Line 85" x2="29.757" transform="translate(0.902 39.833)" fill="none" stroke="#f9b00d" stroke-linecap="round" stroke-miterlimit="10" stroke-width="2"/>
        <line id="Line_86" data-name="Line 86" y1="36.419" transform="translate(21.642 3.414)" fill="none" stroke="#f9b00d" stroke-linecap="round" stroke-miterlimit="10" stroke-width="2"/>
        <path id="Path_435" data-name="Path 435" d="M23.853,0a1.289,1.289,0,0,1,1.353,1.214,1.361,1.361,0,0,1-2.705,0A1.289,1.289,0,0,1,23.853,0" transform="translate(-2.211 1.795)" fill="#fff" stroke="#f9b00d" stroke-width="1"/>
        <line id="Line_87" data-name="Line 87" x1="8.19" transform="translate(21.642 13.935)" fill="none" stroke="#f9b00d" stroke-linecap="round" stroke-miterlimit="10" stroke-width="2"/>
        <path id="Path_436" data-name="Path 436" d="M38.428,9.856h4.509l-1.8,4.114,1.8,3.979H32.116l3.607-4.856V5H24" transform="translate(-2.358 0.842)" fill="none" stroke="#f9b00d" stroke-linecap="round" stroke-linejoin="round" stroke-width="2"/>
        <path id="Path_437" data-name="Path 437" d="M4.648,23.645H3.69a2.351,2.351,0,0,1-1.568-.583,1.885,1.885,0,0,1-.647-1.522l-.057-9.022A3.11,3.11,0,0,1,4.641,9.482H6.452v-2.2" transform="translate(-0.139 0.407)" fill="none" stroke="#f9b00d" stroke-linecap="round" stroke-miterlimit="10" stroke-width="2"/>
        <path id="Path_438" data-name="Path 438" d="M13,15V38.47l.9,2.327" transform="translate(-1.277 -1.065)" fill="none" stroke="#f9b00d" stroke-linecap="round" stroke-miterlimit="10" stroke-width="2"/>
        <path id="Path_439" data-name="Path 439" d="M4.9,15V38.47L4,40.9" transform="translate(-0.393 -1.065)" fill="none" stroke="#f9b00d" stroke-linecap="round" stroke-miterlimit="10" stroke-width="2"/>
        <path id="Path_440" data-name="Path 440" d="M36.9,46a.814.814,0,1,1-.9.809A.86.86,0,0,1,36.9,46" transform="translate(-3.537 -6.976)" fill="none" stroke="#f9b00d" stroke-width="1"/>
      </g>
    </g>
  </g>
</svg>
