<svg xmlns="http://www.w3.org/2000/svg" width="18.372" height="18.372" viewBox="0 0 18.372 18.372">
  <path id="Icon_awesome-phone-alt" data-name="Icon awesome-phone-alt" d="M17.848,12.983,13.829,11.26a.861.861,0,0,0-1,.248l-1.78,2.174A13.3,13.3,0,0,1,4.686,7.324l2.174-1.78a.859.859,0,0,0,.248-1L5.386.521A.867.867,0,0,0,4.4.022L.667.883A.861.861,0,0,0,0,1.723,16.648,16.648,0,0,0,16.649,18.372a.861.861,0,0,0,.84-.667l.861-3.732a.872.872,0,0,0-.5-.99Z" transform="translate(0 0)" fill="#122e3a"/>
</svg>
