<svg xmlns="http://www.w3.org/2000/svg" width="18.32" height="18.32" viewBox="0 0 18.32 18.32">
  <path id="Icon_awesome-linkedin-in" data-name="Icon awesome-linkedin-in" d="M4.1,18.32H.3V6.089H4.1ZM2.2,4.421A2.21,2.21,0,1,1,4.4,2.2,2.218,2.218,0,0,1,2.2,4.421Zm16.116,13.9h-3.79V12.366c0-1.419-.029-3.239-1.975-3.239-1.975,0-2.277,1.542-2.277,3.136V18.32H6.48V6.089h3.643V7.758h.053a3.991,3.991,0,0,1,3.594-1.975c3.844,0,4.551,2.531,4.551,5.819V18.32Z" transform="translate(0 -0.001)" fill="#fff"/>
</svg>
