<svg id="Group_315" data-name="Group 315" xmlns="http://www.w3.org/2000/svg" xmlns:xlink="http://www.w3.org/1999/xlink" width="41.48" height="41.48" viewBox="0 0 41.48 41.48">
  <defs>
    <clipPath id="clip-path">
      <rect id="Rectangle_158" data-name="Rectangle 158" width="41.48" height="41.48" fill="none" stroke="#f9b00d" stroke-width="1.6"/>
    </clipPath>
  </defs>
  <g id="Group_315-2" data-name="Group 315" clip-path="url(#clip-path)">
    <circle id="Ellipse_52" data-name="Ellipse 52" cx="3.988" cy="3.988" r="3.988" transform="translate(16.752 0.798)" fill="none" stroke="#f9b00d" stroke-linejoin="round" stroke-width="1.6"/>
    <path id="Path_415" data-name="Path 415" d="M32.549,18.584V16.9a3.192,3.192,0,0,0-2.182-3.027L27.763,13l-3.988,3.988L19.786,13l-2.6.868A3.192,3.192,0,0,0,15,16.9v1.689a2.393,2.393,0,0,0,2.393,2.393H30.156A2.393,2.393,0,0,0,32.549,18.584Z" transform="translate(-3.035 -2.63)" fill="none" stroke="#f9b00d" stroke-linecap="round" stroke-linejoin="round" stroke-width="1.6"/>
    <line id="Line_61" data-name="Line 61" y2="3.191" transform="translate(15.156 15.156)" fill="none" stroke="#f9b00d" stroke-linecap="round" stroke-linejoin="round" stroke-width="1.6"/>
    <line id="Line_62" data-name="Line 62" y2="3.191" transform="translate(26.324 15.156)" fill="none" stroke="#f9b00d" stroke-linecap="round" stroke-linejoin="round" stroke-width="1.6"/>
    <circle id="Ellipse_53" data-name="Ellipse 53" cx="3.988" cy="3.988" r="3.988" transform="translate(5.584 23.133)" fill="none" stroke="#f9b00d" stroke-linejoin="round" stroke-width="1.6"/>
    <path id="Path_416" data-name="Path 416" d="M18.549,46.584V44.9a3.192,3.192,0,0,0-2.182-3.027L13.763,41,9.775,44.988,5.786,41l-2.6.868A3.192,3.192,0,0,0,1,44.9v1.689a2.393,2.393,0,0,0,2.393,2.393H16.156A2.393,2.393,0,0,0,18.549,46.584Z" transform="translate(-0.202 -8.295)" fill="none" stroke="#f9b00d" stroke-linecap="round" stroke-linejoin="round" stroke-width="1.6"/>
    <line id="Line_63" data-name="Line 63" y2="3.191" transform="translate(3.988 37.492)" fill="none" stroke="#f9b00d" stroke-linecap="round" stroke-linejoin="round" stroke-width="1.6"/>
    <line id="Line_64" data-name="Line 64" y2="3.191" transform="translate(15.156 37.492)" fill="none" stroke="#f9b00d" stroke-linecap="round" stroke-linejoin="round" stroke-width="1.6"/>
    <circle id="Ellipse_54" data-name="Ellipse 54" cx="3.988" cy="3.988" r="3.988" transform="translate(27.919 23.133)" fill="none" stroke="#f9b00d" stroke-linejoin="round" stroke-width="1.6"/>
    <path id="Path_417" data-name="Path 417" d="M46.549,46.584V44.9a3.192,3.192,0,0,0-2.182-3.027L41.763,41l-3.988,3.988L33.786,41l-2.6.868A3.192,3.192,0,0,0,29,44.9v1.689a2.393,2.393,0,0,0,2.393,2.393H44.156A2.393,2.393,0,0,0,46.549,46.584Z" transform="translate(-5.867 -8.295)" fill="none" stroke="#f9b00d" stroke-linecap="round" stroke-linejoin="round" stroke-width="1.6"/>
    <line id="Line_65" data-name="Line 65" y2="3.191" transform="translate(26.324 37.492)" fill="none" stroke="#f9b00d" stroke-linecap="round" stroke-linejoin="round" stroke-width="1.6"/>
    <line id="Line_66" data-name="Line 66" y2="3.191" transform="translate(37.492 37.492)" fill="none" stroke="#f9b00d" stroke-linecap="round" stroke-linejoin="round" stroke-width="1.6"/>
    <line id="Line_67" data-name="Line 67" y2="4.786" transform="translate(20.74 22.335)" fill="none" stroke="#f9b00d" stroke-linecap="round" stroke-linejoin="round" stroke-width="1.6"/>
    <line id="Line_68" data-name="Line 68" x2="4.145" y2="2.393" transform="translate(20.74 27.122)" fill="none" stroke="#f9b00d" stroke-linecap="round" stroke-linejoin="round" stroke-width="1.6"/>
    <line id="Line_69" data-name="Line 69" x1="4.145" y2="2.393" transform="translate(16.595 27.122)" fill="none" stroke="#f9b00d" stroke-linecap="round" stroke-linejoin="round" stroke-width="1.6"/>
  </g>
</svg>
