<svg xmlns="http://www.w3.org/2000/svg" width="62.259" height="53.843" viewBox="0 0 62.259 53.843">
  <g id="Group_175" data-name="Group 175" transform="translate(0.75 0.75)">
    <path id="Path_260" data-name="Path 260" d="M12.383,20.082a16.564,16.564,0,0,1,.052-1.7,15.2,15.2,0,0,1,13.1-13.751,15.5,15.5,0,0,1,4.631.108,15.5,15.5,0,0,0-4.631-.108,15.2,15.2,0,0,0-13.1,13.751A16.564,16.564,0,0,0,12.383,20.082Z" transform="translate(3.058 0.701)" fill="none" stroke="#6a7fc3" stroke-miterlimit="10" stroke-width="1.5"/>
    <path id="Path_261" data-name="Path 261" d="M41.153,16.225a14.9,14.9,0,0,1-4.42,10.714,11.318,11.318,0,0,0-3.454,8.044V37.6H18.706V34.592a10.089,10.089,0,0,0-1.246-4.834,10.089,10.089,0,0,1,1.246,4.834V37.6H33.279V34.983a11.318,11.318,0,0,1,3.454-8.044A14.9,14.9,0,0,0,41.153,16.225Z" transform="translate(4.58 4.21)" fill="none" stroke="#6a7fc3" stroke-miterlimit="10" stroke-width="1.5"/>
    <path id="Path_262" data-name="Path 262" d="M18.419,32.677H32.991V38.62l-4.069,2.414-1.232,2.171H23.724l-1.232-2.171L18.419,38.62Z" transform="translate(4.867 9.137)" fill="none" stroke="#6a7fc3" stroke-miterlimit="10" stroke-width="1.5"/>
    <ellipse id="Ellipse_3" data-name="Ellipse 3" cx="5.103" cy="5.103" rx="5.103" ry="5.103" transform="translate(25.481 15.332)" fill="none" stroke="#6a7fc3" stroke-miterlimit="10" stroke-width="1.5"/>
    <path id="Path_263" data-name="Path 263" d="M17.972,16.225h0Z" transform="translate(4.733 4.21)" fill="none" stroke="#6a7fc3" stroke-miterlimit="10" stroke-width="1.5"/>
    <path id="Path_264" data-name="Path 264" d="M28.222,16.225h0Z" transform="translate(7.803 4.21)" fill="none" stroke="#6a7fc3" stroke-miterlimit="10" stroke-width="1.5"/>
    <path id="Path_265" data-name="Path 265" d="M19.748,20.91l1.724-1.724Z" transform="translate(5.265 5.097)" fill="none" stroke="#6a7fc3" stroke-miterlimit="10" stroke-width="1.5"/>
    <path id="Path_266" data-name="Path 266" d="M27,13.662l1.724-1.724Z" transform="translate(7.436 2.926)" fill="none" stroke="#6a7fc3" stroke-miterlimit="10" stroke-width="1.5"/>
    <path id="Path_267" data-name="Path 267" d="M24.035,22.851v0Z" transform="translate(6.549 5.464)" fill="none" stroke="#6a7fc3" stroke-miterlimit="10" stroke-width="1.5"/>
    <path id="Path_268" data-name="Path 268" d="M24.035,12.6v0Z" transform="translate(6.549 2.394)" fill="none" stroke="#6a7fc3" stroke-miterlimit="10" stroke-width="1.5"/>
    <path id="Path_269" data-name="Path 269" d="M28.72,20.91,27,19.186Z" transform="translate(7.436 5.097)" fill="none" stroke="#6a7fc3" stroke-miterlimit="10" stroke-width="1.5"/>
    <path id="Path_270" data-name="Path 270" d="M21.472,13.662l-1.724-1.724Z" transform="translate(5.265 2.926)" fill="none" stroke="#6a7fc3" stroke-miterlimit="10" stroke-width="1.5"/>
    <rect id="Rectangle_63" data-name="Rectangle 63" width="18.453" height="13.181" transform="translate(0 24.997)" fill="none" stroke="#6a7fc3" stroke-miterlimit="10" stroke-width="1.5"/>
    <path id="Path_271" data-name="Path 271" d="M.646,29.9l6.278-5.089,5.935,6.384L6.924,24.806Z" transform="translate(-0.456 6.78)" fill="none" stroke="#6a7fc3" stroke-miterlimit="10" stroke-width="1.5"/>
    <path id="Path_272" data-name="Path 272" d="M16.681,29.7,11.3,25.463,8.084,28.255,11.3,25.463Z" transform="translate(1.771 6.977)" fill="none" stroke="#6a7fc3" stroke-miterlimit="10" stroke-width="1.5"/>
    <path id="Path_273" data-name="Path 273" d="M29.632.5V11.044h5.06v6.113h.121l4.251-6.113H50.642V.5Z" transform="translate(8.225 -0.5)" fill="none" stroke="#6a7fc3" stroke-miterlimit="10" stroke-width="1.5"/>
    <path id="Path_274" data-name="Path 274" d="M32.707,4.557h0Z" transform="translate(9.146 0.715)" fill="none" stroke="#6a7fc3" stroke-miterlimit="10" stroke-width="1.5"/>
    <path id="Path_275" data-name="Path 275" d="M36.764,4.557h0Z" transform="translate(10.361 0.715)" fill="none" stroke="#6a7fc3" stroke-miterlimit="10" stroke-width="1.5"/>
    <path id="Path_276" data-name="Path 276" d="M40.821,4.557h0Z" transform="translate(11.577 0.715)" fill="none" stroke="#6a7fc3" stroke-miterlimit="10" stroke-width="1.5"/>
    <ellipse id="Ellipse_4" data-name="Ellipse 4" cx="3.954" cy="3.954" rx="3.954" ry="3.954" transform="translate(45.807 34.738)" fill="none" stroke="#6a7fc3" stroke-miterlimit="10" stroke-width="1.5"/>
    <path id="Path_277" data-name="Path 277" d="M11.536,3.61A2.636,2.636,0,1,1,8.9.975,2.637,2.637,0,0,1,11.536,3.61Z" transform="translate(1.226 -0.358)" fill="none" stroke="#6a7fc3" stroke-miterlimit="10" stroke-width="1.5"/>
    <path id="Path_278" data-name="Path 278" d="M3.411,12.8h0Z" transform="translate(0.372 3.185)" fill="none" stroke="#6a7fc3" stroke-miterlimit="10" stroke-width="1.5"/>
    <path id="Path_279" data-name="Path 279" d="M16.925.5h0Z" transform="translate(4.419 -0.5)" fill="none" stroke="#6a7fc3" stroke-miterlimit="10" stroke-width="1.5"/>
    <path id="Path_280" data-name="Path 280" d="M41.36,21.975V14.066l6.9,3.954Z" transform="translate(11.738 3.563)" fill="none" stroke="#6a7fc3" stroke-miterlimit="10" stroke-width="1.5"/>
  </g>
</svg>
