<svg id="Social_1" data-name="Social #1" xmlns="http://www.w3.org/2000/svg" width="15.478" height="15.479" viewBox="0 0 15.478 15.479">
  <g id="LinkedIn" transform="translate(0 0)">
    <path id="LinkedIn_Icon" data-name="LinkedIn Icon" d="M8.668,15.479h-3.3q0-.9,0-1.805c0-2.947.007-5.995-.079-9H8.151l.155,1.522h.052a3.857,3.857,0,0,1,3.3-1.754c2.391,0,3.819,1.745,3.819,4.668v6.371H12.15V9.492c0-1.557-.564-2.347-1.676-2.347a1.848,1.848,0,0,0-1.7,1.263,2.448,2.448,0,0,0-.1.852v6.217Zm-5.288,0H.078V4.669h3.3V15.477ZM1.7,3.354A1.635,1.635,0,0,1,0,1.676,1.66,1.66,0,0,1,1.754,0,1.647,1.647,0,0,1,3.482,1.676,1.656,1.656,0,0,1,1.7,3.354Z" transform="translate(0 0)" fill="#0f2d67"/>
  </g>
</svg>
