<svg xmlns="http://www.w3.org/2000/svg" xmlns:xlink="http://www.w3.org/1999/xlink" width="41.48" height="39.284" viewBox="0 0 41.48 39.284">
  <defs>
    <clipPath id="clip-path">
      <rect id="Rectangle_173" data-name="Rectangle 173" width="41.48" height="39.284" fill="#41ab6e"/>
    </clipPath>
  </defs>
  <g id="Group_337" data-name="Group 337" transform="translate(0 0)">
    <g id="Group_337-2" data-name="Group 337" transform="translate(0 0)" clip-path="url(#clip-path)">
      <path id="Path_466" data-name="Path 466" d="M23.665,12.538h1.99a1.909,1.909,0,0,0,1.9-1.909v-2a1.909,1.909,0,0,0-1.9-1.914h-1.99a1.909,1.909,0,0,0-1.9,1.9v2a1.909,1.909,0,0,0,1.9,1.918h0M23.1,8.63a.567.567,0,0,1,.558-.576h2a.567.567,0,0,1,.567.567v2a.567.567,0,0,1-.553.58h-2a.567.567,0,0,1-.567-.567v-2ZM15.3,14.988h-2a1.905,1.905,0,0,0-1.9,1.9v2a1.905,1.905,0,0,0,1.9,1.9h2a1.909,1.909,0,0,0,1.909-1.9v-2a1.909,1.909,0,0,0-1.909-1.9m.571,3.9a.567.567,0,0,1-.567.567h-2a.567.567,0,0,1-.567-.567v-2a.567.567,0,0,1,.567-.567h2a.567.567,0,0,1,.571.562v2Zm4.774,2.369a2.9,2.9,0,1,0,2.9,2.9,2.9,2.9,0,0,0-2.9-2.9m0,4.461a1.57,1.57,0,1,1,0,.009Zm-3.89-1.566a.669.669,0,0,1-.669.669H14.265a.669.669,0,0,1-.669-.669V22.63a.669.669,0,1,1,1.338,0V23.5h1.155a.669.669,0,0,1,.669.669ZM13.493,13.288V9.63a.669.669,0,0,1,.669-.669h5.4a.669.669,0,1,1,0,1.338H14.831v2.989a.669.669,0,0,1-1.338,0M27.885,17.1H21.251v2.436a.669.669,0,1,1-1.338,0V16.415a.669.669,0,0,1,.669-.669h3.413V14.06a.669.669,0,1,1,1.338,0v1.7h3.212a.669.669,0,0,1,.669.669v3.123a.669.669,0,1,1-1.338,0V17.1Zm13.384-4.97a3.52,3.52,0,0,0-6.5-.241l-.352.758V7.466a3.091,3.091,0,0,0-3.087-3.087H9.982A5.01,5.01,0,0,0,0,5.048V24.6a.538.538,0,0,0,0,.085,5.005,5.005,0,0,0,5.006,4.907H26.64l-.915,1.985v.045a.151.151,0,0,0,0,.049.894.894,0,0,0-.022.1v.031l-.446,5.8a1.553,1.553,0,0,0,1.422,1.673c.036,0,.072,0,.108,0a1.544,1.544,0,0,0,1.1-.446l4.109-4.1.04-.049.067-.1v-.027l6.8-14.811,1.338-2.931.892-1.972a3.492,3.492,0,0,0,.138-2.721m-5.282.317a2.179,2.179,0,0,1,3.962,1.816L39.324,15.6,35.366,13.81ZM34.8,15.023l1.981.892,1.981.892-.785,1.713-3.962-1.816ZM5.471,20.952A3.672,3.672,0,0,1,8.7,24.6a1.522,1.522,0,0,1-1.554,1.487l-.047,0a1.494,1.494,0,0,1-1.089-.446A2.32,2.32,0,0,1,5.48,24ZM1.34,5.048a3.676,3.676,0,0,1,7.352,0h0V21.189a5.055,5.055,0,0,0-7.145-.207q-.106.1-.207.207Zm3.676,23.23a3.672,3.672,0,0,1-.892-7.236V24a3.57,3.57,0,0,0,.892,2.565,2.825,2.825,0,0,0,2.057.861,2.859,2.859,0,0,0,2.965-2.75c0-.025,0-.049,0-.074V5.717h21.3a1.753,1.753,0,0,1,1.749,1.749v8.1l-.558,1.222-2.146,4.671a1.889,1.889,0,0,0-.839-.2h-2a1.9,1.9,0,0,0-1.892,1.9v2a1.905,1.905,0,0,0,1.9,1.9h.263l-.558,1.209Zm24.8-5.6-1.4,3.052h-.892a.566.566,0,0,1-.535-.567v-2a.567.567,0,0,1,.567-.567h2a.573.573,0,0,1,.263.08m-2.891,15.2a.208.208,0,0,1-.352-.161l.352-4.823,3.426,1.57Zm4.252-4.506-3.957-1.816,6.246-13.6,1.981.892,1.976.892Z" transform="translate(0 0)" fill="#41ab6e"/>
    </g>
  </g>
</svg>
