<svg xmlns="http://www.w3.org/2000/svg" width="39.4" height="40.4" viewBox="0 0 39.4 40.4">
  <g id="Group_364" data-name="Group 364" transform="translate(-18.3 0.41)">
    <g id="Group_365" data-name="Group 365" transform="translate(18 -0.257)">
      <circle id="Ellipse_55" data-name="Ellipse 55" cx="9.5" cy="9.5" r="9.5" transform="translate(20 0.548)" fill="none" stroke="#0072ca" stroke-linecap="round" stroke-width="1.4"/>
      <ellipse id="Ellipse_56" data-name="Ellipse 56" cx="4" cy="9.5" rx="4" ry="9.5" transform="translate(25 0.548)" fill="none" stroke="#0072ca" stroke-linecap="round" stroke-width="1.4"/>
      <line id="Line_114" data-name="Line 114" x2="19" transform="translate(20 10.548)" fill="none" stroke="#0072ca" stroke-linecap="round" stroke-linejoin="round" stroke-width="1.4"/>
      <path id="Path_496" data-name="Path 496" d="M12,22.227h2.81a4.9,4.9,0,0,0,2.723-.825l.6-.4,1.227,1.227" transform="translate(-4.635 -7.844)" fill="none" stroke="#0072ca" stroke-linecap="round" stroke-width="1.4"/>
      <path id="Path_498" data-name="Path 498" d="M20.857,35.217v1.708a1.841,1.841,0,0,1-1.841,1.841H17.841A1.841,1.841,0,0,1,16,36.925V35.217" transform="translate(-6.18 -13.335)" fill="none" stroke="#0072ca" stroke-linecap="round" stroke-width="1.4"/>
      <path id="Path_499" data-name="Path 499" d="M8.682,44.685v5.524h2.527a2.456,2.456,0,0,1,2.329,1.679l.668,2H7.455A2.455,2.455,0,0,1,5,51.436V44.044c0-2.4,1.2-4,3.2-4.4l1.566-.224" transform="translate(-1.931 -14.958)" fill="none" stroke="#0072ca" stroke-linecap="round" stroke-width="1.4"/>
      <path id="Path_501" data-name="Path 501" d="M24,53.891h4.3a2.455,2.455,0,0,0,2.455-2.455V44.044c0-2.4-1.2-4-3.2-4.4l-1.566-.224" transform="translate(-9.27 -14.958)" fill="none" stroke="#0072ca" stroke-linecap="round" stroke-width="1.4"/>
      <path id="Path_502" data-name="Path 502" d="M26.3,48v5.524H22" transform="translate(-8.498 -18.272)" fill="none" stroke="#0072ca" stroke-linecap="round" stroke-width="1.4"/>
      <path id="Path_503" data-name="Path 503" d="M18,41v1.227a1.227,1.227,0,0,0,2.455,0V41" transform="translate(-6.953 -15.569)" fill="none" stroke="#0072ca" stroke-linecap="round" stroke-width="1.4"/>
      <path id="Path_504" data-name="Path 504" d="M21.82,19.91a4.91,4.91,0,1,0-9.82,0v3.069a4.91,4.91,0,0,0,9.82,0l-.029-1.316Z" transform="translate(-4.635 -5.526)" fill="none" stroke="#0072ca" stroke-linecap="round" stroke-width="1.4"/>
      <line id="Line_115" data-name="Line 115" y1="3" transform="translate(12 28.548)" fill="none" stroke="#0072ca" stroke-linecap="round" stroke-linejoin="round" stroke-width="1.4"/>
      <line id="Line_116" data-name="Line 116" x1="38" transform="translate(1 39.548)" fill="none" stroke="#0072ca" stroke-linecap="round" stroke-linejoin="round" stroke-width="1.4"/>
    </g>
  </g>
</svg>
