<svg xmlns="http://www.w3.org/2000/svg" xmlns:xlink="http://www.w3.org/1999/xlink" width="41.48" height="41.537" viewBox="0 0 41.48 41.537">
  <defs>
    <clipPath id="clip-path">
      <rect id="Rectangle_159" data-name="Rectangle 159" width="41.48" height="41.537" fill="none" stroke="#41ab6e" stroke-width="1.6"/>
    </clipPath>
  </defs>
  <g id="Group_316" data-name="Group 316" transform="translate(0 0)">
    <g id="Group_316-2" data-name="Group 316" transform="translate(0 0)" clip-path="url(#clip-path)">
      <path id="Path_418" data-name="Path 418" d="M34.641,11.584a15.27,15.27,0,0,1,2.119,7.764c0,9.158-8.112,16.584-18.131,16.584a19.521,19.521,0,0,1-6.653-1.171L5.271,38.835l.762-7.564A15.953,15.953,0,0,1,.5,19.347c0-9.171,8.111-16.6,18.129-16.6A19.028,19.028,0,0,1,30.417,6.736" transform="translate(0.339 1.863)" fill="none" stroke="#41ab6e" stroke-linejoin="round" stroke-width="1.6"/>
      <path id="Path_419" data-name="Path 419" d="M14.846,25.459s.507-4.513,1.055-5.41L26.721,2.385A1.864,1.864,0,1,1,29.9,4.333L19.082,22C18.532,22.894,14.846,25.459,14.846,25.459Z" transform="translate(10.058 0.992)" fill="none" stroke="#41ab6e" stroke-linejoin="round" stroke-width="1.6"/>
      <path id="Path_420" data-name="Path 420" d="M27.178,5.58l-5.707-3.5L17.356,8.8" transform="translate(11.759 1.412)" fill="none" stroke="#41ab6e" stroke-linejoin="round" stroke-width="1.6"/>
      <line id="Line_70" data-name="Line 70" y1="2.288" x2="1.401" transform="translate(39.364 0.437)" fill="none" stroke="#41ab6e" stroke-linejoin="round" stroke-width="1.6"/>
      <line id="Line_71" data-name="Line 71" x1="10.753" transform="translate(10.481 26.628)" fill="none" stroke="#41ab6e" stroke-linejoin="round" stroke-width="1.6"/>
      <line id="Line_72" data-name="Line 72" x1="10.753" transform="translate(10.481 21.643)" fill="none" stroke="#41ab6e" stroke-linejoin="round" stroke-width="1.6"/>
      <line id="Line_73" data-name="Line 73" x1="14.49" transform="translate(10.481 16.659)" fill="none" stroke="#41ab6e" stroke-linejoin="round" stroke-width="1.6"/>
    </g>
  </g>
</svg>
