<svg xmlns="http://www.w3.org/2000/svg" xmlns:xlink="http://www.w3.org/1999/xlink" width="38.451" height="38.978" viewBox="0 0 38.451 38.978">
  <defs>
    <clipPath id="clip-path">
      <rect id="Rectangle_179" data-name="Rectangle 179" width="38.451" height="38.978" fill="#7473be"/>
    </clipPath>
  </defs>
  <g id="Group_342" data-name="Group 342" transform="translate(0 0)">
    <g id="Group_342-2" data-name="Group 342" transform="translate(0 0)" clip-path="url(#clip-path)">
      <path id="Path_490" data-name="Path 490" d="M45.885,37.417a4.507,4.507,0,0,0,4.535-4.535V27.7a4.535,4.535,0,1,0-9.07,0v5.442a4.5,4.5,0,0,0,4.535,4.276m0-1.3a3.208,3.208,0,0,1-3.239-3.239h6.479a3.208,3.208,0,0,1-3.239,3.239m0-11.662A3.208,3.208,0,0,1,49.124,27.7v3.887H42.646V27.7a3.208,3.208,0,0,1,3.239-3.239" transform="translate(-14.561 -8.157)" fill="#7473be"/>
      <path id="Path_491" data-name="Path 491" d="M50.307,34.164v2.591a5.831,5.831,0,1,1-11.662,0V34.164h-1.3v2.591a7.112,7.112,0,0,0,6.479,7.062v7.191h1.3V43.817A7.112,7.112,0,0,0,51.6,36.755V34.164Z" transform="translate(-13.152 -12.031)" fill="#7473be"/>
      <path id="Path_492" data-name="Path 492" d="M1.717,37.034a1.942,1.942,0,0,1-.454-1.555l1.1-7.256A3.31,3.31,0,0,1,4.956,25.5l6.608-1.361L17.071,33.8l5.507-9.588.324.065V22.911h-.13a10.909,10.909,0,0,1-.518-4.535,8.187,8.187,0,0,0,1.879-5.312V10.731a5.459,5.459,0,0,0,1.814-4.146,4.165,4.165,0,0,0-1.425-3.11A17.817,17.817,0,0,0,17.136.106a5.417,5.417,0,0,0-5.7,2.656A3.534,3.534,0,0,0,8.908,4.188a3.692,3.692,0,0,0-.259,3.239c.518,1.49,1.166,3.369,1.3,3.822v1.814a8.553,8.553,0,0,0,1.944,5.377,9.493,9.493,0,0,1-.518,4.405L4.7,24.207a4.475,4.475,0,0,0-3.563,3.758l-1.1,7.321A3.2,3.2,0,0,0,.81,37.877a3.244,3.244,0,0,0,2.462,1.1H29.381v-1.3H3.207a2.109,2.109,0,0,1-1.49-.648M12.6,23.3a13.306,13.306,0,0,0,.648-3.5l.648.648a3.039,3.039,0,0,0,2.268.972h1.749a2.941,2.941,0,0,0,2.268-.972l.713-.713a11.109,11.109,0,0,0,.648,3.5L17.071,31.2ZM11.24,11.249l1.62-4.017c.972.065,2.527.259,2.915.972a5.089,5.089,0,0,0,4.47,2.268v-1.3a3.8,3.8,0,0,1-3.3-1.62c-.972-1.749-4.082-1.62-4.47-1.62h-.389L10.657,9.371c-.259-.713-.518-1.555-.777-2.332a2.773,2.773,0,0,1,.13-2.138,2.329,2.329,0,0,1,1.944-.907l.389-.065.13-.324A4.363,4.363,0,0,1,16.1,1.272a3.252,3.252,0,0,1,.777.13,17.356,17.356,0,0,1,6.867,3.11,2.754,2.754,0,0,1,.907,2.138,4.041,4.041,0,0,1-1.555,3.3l-.259.194v2.915a7,7,0,0,1-2.073,5.053l-1.49,1.49a1.764,1.764,0,0,1-1.361.583H16.164a1.865,1.865,0,0,1-1.361-.583l-1.49-1.49a7.388,7.388,0,0,1-2.073-5.053Z" transform="translate(0 0)" fill="#7473be"/>
    </g>
  </g>
</svg>
