<svg xmlns="http://www.w3.org/2000/svg" width="22.286" height="27.652" viewBox="0 0 22.286 27.652">
  <g id="Button_copy" data-name="Button copy" transform="translate(-1016 -1190.003)">
    <g id="Vector_Smart_Object" data-name="Vector Smart Object" transform="translate(1016.109 1190.109)">
      <g id="igVema.tif" transform="translate(0 0)">
        <g id="Group_13" data-name="Group 13">
          <path id="Path_18" data-name="Path 18" d="M35.068,51.15H17.909c-.1-.011-.2-.021-.3-.035a2.3,2.3,0,0,1-1.41-.682,2.673,2.673,0,0,1-.732-1.908q0-11.093,0-22.187a3.832,3.832,0,0,1,.055-.65,2.171,2.171,0,0,1,.647-1.234,2.666,2.666,0,0,1,1.892-.738q5.875-.01,11.751,0a.194.194,0,0,1,.121.052c.206.2.408.4.611.6Q34,27.819,37.462,31.264a.23.23,0,0,1,.076.179q0,8.467,0,16.934a5.322,5.322,0,0,1-.034.644,2.278,2.278,0,0,1-.5,1.192,2.552,2.552,0,0,1-1.494.868C35.365,51.113,35.216,51.128,35.068,51.15Zm-5.6-26.425h-.111q-5.621,0-11.241,0a2.189,2.189,0,0,0-.438.046,1.388,1.388,0,0,0-1.029.737,1.814,1.814,0,0,0-.164.836q0,11.085,0,22.169a2.141,2.141,0,0,0,.054.483,1.356,1.356,0,0,0,.83,1.018,2.012,2.012,0,0,0,.769.12q8.35,0,16.7,0a2.447,2.447,0,0,0,.553-.063,1.343,1.343,0,0,0,1-.816,1.953,1.953,0,0,0,.123-.754q0-8.322,0-16.644c0-.139,0-.139-.139-.139-1.424,0-2.849,0-4.273,0a3.783,3.783,0,0,1-.654-.055A2.229,2.229,0,0,1,29.9,30.62,2.794,2.794,0,0,1,29.47,29.1q0-2.133,0-4.267Zm1.02,1.023v.108q0,1.628,0,3.255a2.492,2.492,0,0,0,.02.3,1.413,1.413,0,0,0,1.453,1.3c1.14.006,2.281,0,3.421,0a.709.709,0,0,0,.071-.008Z" transform="translate(-15.469 -23.713)" fill="#fff" stroke="#fff" stroke-miterlimit="10" stroke-width="0.218"/>
          <path id="Path_19" data-name="Path 19" d="M27.827,36.145a7.47,7.47,0,0,1-.452,2.323c-.111.314-.24.622-.357.935a.165.165,0,0,0,0,.121,9.827,9.827,0,0,0,1.419,2.056,8.581,8.581,0,0,0,1.316,1.155.142.142,0,0,0,.1.02c.451-.079.9-.179,1.351-.24a5.8,5.8,0,0,1,2.71.191,2.905,2.905,0,0,1,1.23.781.939.939,0,0,1,.251.5.744.744,0,0,1-.334.752,1.989,1.989,0,0,1-.858.318,5.219,5.219,0,0,1-2.026-.106A8.253,8.253,0,0,1,29.671,43.9a.175.175,0,0,0-.12-.025c-1.151.3-2.3.591-3.452.9-.473.127-.938.287-1.405.436a.185.185,0,0,0-.1.088,15.239,15.239,0,0,1-1.223,2.133,5.123,5.123,0,0,1-1.325,1.351,1.987,1.987,0,0,1-.795.323,1.229,1.229,0,0,1-1.367-1.055,1.652,1.652,0,0,1,.327-1.078,4.8,4.8,0,0,1,1.062-1.092,9.952,9.952,0,0,1,2.52-1.418.19.19,0,0,0,.116-.116q.633-1.577,1.269-3.153c.217-.54.433-1.08.653-1.618a.163.163,0,0,0,0-.147,8.014,8.014,0,0,1-.64-1.846,4.1,4.1,0,0,1,.09-2.22,2.657,2.657,0,0,1,.589-1.008.936.936,0,0,1,1.5.1,2.051,2.051,0,0,1,.377.935C27.787,35.639,27.8,35.893,27.827,36.145Zm.725,6.944a9.372,9.372,0,0,1-2.06-2.44L25.2,43.964ZM23.118,45.9c-.024.012-.049.022-.071.035-.151.088-.3.171-.452.264a6.016,6.016,0,0,0-1.324,1.075,1.5,1.5,0,0,0-.356.572.2.2,0,0,0,.248.251.575.575,0,0,0,.177-.067,3.967,3.967,0,0,0,.418-.3A6.283,6.283,0,0,0,23.118,45.9Zm3.454-10.806c-.023.029-.043.052-.06.076a2.231,2.231,0,0,0-.38,1.02,3.746,3.746,0,0,0,.087,1.305c.05.216.116.428.174.642h.027c.068-.241.144-.479.2-.722a4.632,4.632,0,0,0,.126-1.8A1.353,1.353,0,0,0,26.572,35.092Zm7.63,8.943,0-.031-.08-.058a2.949,2.949,0,0,0-1.645-.478c-.329-.013-.66.016-.99.031-.1,0-.2.025-.3.039a1.629,1.629,0,0,0,.282.135,5.607,5.607,0,0,0,2.207.42C33.853,44.087,34.028,44.055,34.2,44.035Z" transform="translate(-16.499 -26.118)" fill="#fff" stroke="#fff" stroke-miterlimit="10" stroke-width="0.218"/>
        </g>
      </g>
    </g>
  </g>
</svg>
