<svg xmlns="http://www.w3.org/2000/svg" xmlns:xlink="http://www.w3.org/1999/xlink" width="41.48" height="40.272" viewBox="0 0 41.48 40.272">
  <defs>
    <clipPath id="clip-path">
      <rect id="Rectangle_160" data-name="Rectangle 160" width="41.48" height="40.272" fill="none" stroke="#7473be" stroke-width="1.6"/>
    </clipPath>
  </defs>
  <g id="Group_321" data-name="Group 321" transform="translate(0 0)">
    <g id="Group_318" data-name="Group 318" transform="translate(0 0)">
      <g id="Group_317" data-name="Group 317" clip-path="url(#clip-path)">
        <path id="Path_421" data-name="Path 421" d="M12.291,10.665V3.5h25.4V27.92h-25.4V13.884" transform="translate(3.158 0.9)" fill="none" stroke="#7473be" stroke-linecap="round" stroke-linejoin="round" stroke-width="1.6"/>
        <line id="Line_74" data-name="Line 74" x2="25.402" transform="translate(15.449 24.575)" fill="none" stroke="#7473be" stroke-linecap="round" stroke-linejoin="round" stroke-width="1.6"/>
        <path id="Path_422" data-name="Path 422" d="M15.777,33.752,24.1,22.928l8.276,10.781" transform="translate(4.054 5.891)" fill="none" stroke="#7473be" stroke-linecap="round" stroke-linejoin="round" stroke-width="1.6"/>
        <line id="Line_75" data-name="Line 75" x2="40.223" transform="translate(0.628 39.607)" fill="none" stroke="#7473be" stroke-linecap="round" stroke-linejoin="round" stroke-width="1.6"/>
      </g>
    </g>
    <path id="Path_423" data-name="Path 423" d="M15.378,19.551V14.2h3v5.35" transform="translate(4.347 4.381)" fill="none" stroke="#7473be" stroke-linecap="round" stroke-linejoin="round" stroke-width="1.6"/>
    <path id="Path_424" data-name="Path 424" d="M20.9,19.551V7.674h3V19.551" transform="translate(5.906 3.134)" fill="none" stroke="#7473be" stroke-linecap="round" stroke-linejoin="round" stroke-width="1.6"/>
    <path id="Path_425" data-name="Path 425" d="M26.413,19.551V11.119h3v8.432" transform="translate(8.48 3.878)" fill="none" stroke="#7473be" stroke-linecap="round" stroke-linejoin="round" stroke-width="1.6"/>
    <g id="Group_320" data-name="Group 320" transform="translate(0 0)">
      <g id="Group_319" data-name="Group 319" clip-path="url(#clip-path)">
        <line id="Line_76" data-name="Line 76" y1="13.621" transform="translate(8.04 25.913)" fill="none" stroke="#7473be" stroke-linecap="round" stroke-linejoin="round" stroke-width="1.6"/>
        <line id="Line_77" data-name="Line 77" x1="0.546" y1="23.244" transform="translate(3.928 16.289)" fill="none" stroke="#7473be" stroke-linecap="round" stroke-linejoin="round" stroke-width="1.6"/>
        <rect id="Rectangle_161" data-name="Rectangle 161" width="5.406" height="6.196" rx="2.122" transform="translate(5.414 0.628)" fill="none" stroke="#7473be" stroke-linecap="round" stroke-linejoin="round" stroke-width="1.6"/>
        <path id="Path_426" data-name="Path 426" d="M11.478,37.58l.546-24.764H18.79a3.161,3.161,0,0,0,3.161-3.16l-5.83.013A8.642,8.642,0,0,1,11.9,8.456,6.9,6.9,0,0,0,8.509,7.6h-1.2A6.718,6.718,0,0,0,.5,14.658l.341,5.121c.176.791,1.551,1.363,3.1,1.417" transform="translate(0.129 1.953)" fill="none" stroke="#7473be" stroke-linecap="round" stroke-linejoin="round" stroke-width="1.6"/>
      </g>
    </g>
  </g>
</svg>
