<svg id="Group_366" data-name="Group 366" xmlns="http://www.w3.org/2000/svg" width="41" height="36.08" viewBox="0 0 41 36.08">
  <g id="Group_368" data-name="Group 368">
    <path id="Path_505" data-name="Path 505" d="M38.54,0H2.46A2.463,2.463,0,0,0,0,2.46V28.7a2.463,2.463,0,0,0,2.46,2.46H22.14V29.52H2.46a.821.821,0,0,1-.82-.82V2.46a.821.821,0,0,1,.82-.82H38.54a.821.821,0,0,1,.82.82V28.7a.821.821,0,0,1-.82.82h-8.2v1.64h8.2A2.463,2.463,0,0,0,41,28.7V2.46A2.463,2.463,0,0,0,38.54,0" fill="#f9b00d"/>
    <path id="Path_506" data-name="Path 506" d="M35.688,28.452a3.275,3.275,0,0,0-1.852.447H34.2V39.154l-2.845-1.173a.815.815,0,0,0-.609-.007L27.64,39.181V28.9H28a3.275,3.275,0,0,0-1.852-.447L26,28.469v11.91a.82.82,0,0,0,1.117.764l3.917-1.521,3.674,1.515a.82.82,0,0,0,1.132-.758V28.469Z" transform="translate(-4.68 -5.119)" fill="#f9b00d"/>
    <path id="Path_507" data-name="Path 507" d="M29.465,28.015a2.151,2.151,0,0,1-1.666-.833l-1.083-1.349a2.5,2.5,0,0,0-1.93-.8l-1.718.186a2.118,2.118,0,0,1-1.843-.667,2.147,2.147,0,0,1-.513-1.69l.186-1.718a2.544,2.544,0,0,0-.8-1.93L18.75,18.133a2.084,2.084,0,0,1,0-3.334L20.1,13.716a2.543,2.543,0,0,0,.8-1.929l-.186-1.719a2.147,2.147,0,0,1,.513-1.69,2.117,2.117,0,0,1,1.843-.667l1.718.186a2.5,2.5,0,0,0,1.93-.8L27.8,5.749a2.084,2.084,0,0,1,3.332,0L32.215,7.1a2.509,2.509,0,0,0,1.929.8l1.719-.186a2.105,2.105,0,0,1,1.843.667,2.147,2.147,0,0,1,.514,1.69l-.186,1.719a2.54,2.54,0,0,0,.8,1.929L40.181,14.8a2.084,2.084,0,0,1,0,3.334l-1.35,1.083a2.543,2.543,0,0,0-.8,1.93l.186,1.718a2.147,2.147,0,0,1-.514,1.69,2.1,2.1,0,0,1-1.843.667l-1.719-.186a2.506,2.506,0,0,0-1.929.8l-1.084,1.349a2.149,2.149,0,0,1-1.666.833M24.93,23.386A4.234,4.234,0,0,1,27.993,24.8l1.084,1.349a.459.459,0,0,0,.777,0L30.937,24.8a4.206,4.206,0,0,1,3.386-1.4l1.719.187a.492.492,0,0,0,.444-.132.536.536,0,0,0,.1-.417L36.4,21.323a4.129,4.129,0,0,1,1.4-3.386l1.35-1.084a.451.451,0,0,0,0-.776l-1.348-1.083a4.127,4.127,0,0,1-1.4-3.386l.187-1.719a.535.535,0,0,0-.1-.417.483.483,0,0,0-.444-.132l-1.719.187a4.2,4.2,0,0,1-3.386-1.4L29.854,6.778a.459.459,0,0,0-.777,0L27.993,8.126A4.231,4.231,0,0,1,24.93,9.545a3.172,3.172,0,0,1-.322-.017l-1.719-.187a.482.482,0,0,0-.444.132.53.53,0,0,0-.1.417l.186,1.719a4.126,4.126,0,0,1-1.4,3.386l-1.349,1.084a.451.451,0,0,0,0,.776l1.347,1.083a4.124,4.124,0,0,1,1.4,3.386l-.186,1.719a.529.529,0,0,0,.1.417.491.491,0,0,0,.444.132l1.719-.187a3.172,3.172,0,0,1,.322-.017" transform="translate(-3.225 -0.885)" fill="#f9b00d"/>
    <path id="Path_508" data-name="Path 508" d="M30.74,23.48a5.74,5.74,0,1,1,5.74-5.74,5.747,5.747,0,0,1-5.74,5.74m0-9.84a4.1,4.1,0,1,0,4.1,4.1,4.1,4.1,0,0,0-4.1-4.1" transform="translate(-4.5 -2.16)" fill="#f9b00d"/>
    <path id="Path_509" data-name="Path 509" d="M14.02,10.64H5.82A.82.82,0,1,1,5.82,9h8.2a.82.82,0,0,1,0,1.64" transform="translate(-0.9 -1.62)" fill="#f9b00d"/>
    <path id="Path_510" data-name="Path 510" d="M12.38,28.64H5.82a.82.82,0,0,1,0-1.64h6.56a.82.82,0,1,1,0,1.64" transform="translate(-0.9 -4.86)" fill="#f9b00d"/>
    <path id="Path_511" data-name="Path 511" d="M11.56,14.64H5.82a.82.82,0,1,1,0-1.64h5.74a.82.82,0,0,1,0,1.64" transform="translate(-0.9 -2.34)" fill="#f9b00d"/>
    <path id="Path_512" data-name="Path 512" d="M7.46,18.64H5.82a.82.82,0,1,1,0-1.64H7.46a.82.82,0,0,1,0,1.64" transform="translate(-0.9 -3.06)" fill="#f9b00d"/>
  </g>
</svg>
