<svg xmlns="http://www.w3.org/2000/svg" xmlns:xlink="http://www.w3.org/1999/xlink" width="42.519" height="36.444" viewBox="0 0 42.519 36.444">
  <defs>
    <clipPath id="clip-path">
      <rect id="Rectangle_141" data-name="Rectangle 141" width="42.519" height="36.444" transform="translate(0 0)" fill="none"/>
    </clipPath>
  </defs>
  <g id="Group_232" data-name="Group 232" transform="translate(0 0)" clip-path="url(#clip-path)">
    <circle id="Ellipse_22" data-name="Ellipse 22" cx="3.037" cy="3.037" r="3.037" transform="translate(4.556 5.315)" fill="none" stroke="#7473be" stroke-linejoin="round" stroke-width="1.519"/>
    <line id="Line_54" data-name="Line 54" y2="10.63" transform="translate(7.593 25.055)" fill="none" stroke="#7473be" stroke-linecap="round" stroke-linejoin="round" stroke-width="1.519"/>
    <circle id="Ellipse_23" data-name="Ellipse 23" cx="3.037" cy="3.037" r="3.037" transform="translate(31.889 5.315)" fill="none" stroke="#7473be" stroke-linejoin="round" stroke-width="1.519"/>
    <line id="Line_55" data-name="Line 55" y2="10.63" transform="translate(34.926 25.055)" fill="none" stroke="#7473be" stroke-linecap="round" stroke-linejoin="round" stroke-width="1.519"/>
    <path id="Path_356" data-name="Path 356" d="M38.722,17.463V34.926a.759.759,0,0,1-.759.759H31.889a.759.759,0,0,1-.76-.759V18.281a1.518,1.518,0,0,0-1.9-1.471l-5.3,1.36a1.518,1.518,0,1,1-.786-2.933l8.745-2.33,3.037,3.037,3.037-3.037,1.967.5a2.675,2.675,0,0,1,1.829,2.535v6.834a3.037,3.037,0,0,1-3.037,3.037" fill="none" stroke="#7473be" stroke-linecap="round" stroke-linejoin="round" stroke-width="1.519"/>
    <line id="Line_56" data-name="Line 56" y2="34.926" transform="translate(21.259 0.759)" fill="none" stroke="#7473be" stroke-linecap="round" stroke-linejoin="round" stroke-width="1.519"/>
    <path id="Path_357" data-name="Path 357" d="M29.611,6.833H21.259V.759h8.352L27.333,3.8Z" fill="none" stroke="#7473be" stroke-linecap="round" stroke-linejoin="round" stroke-width="1.519"/>
    <path id="Path_358" data-name="Path 358" d="M3.8,17.463V34.926a.759.759,0,0,0,.759.759h6.074a.759.759,0,0,0,.76-.759V17.653a2.278,2.278,0,0,1,1.64-2.187l6.345-1.851a1.518,1.518,0,1,0-.786-2.933l-7.959,2.225L7.592,15.944,4.555,12.907l-1.967.5A2.673,2.673,0,0,0,.759,15.944v6.834A3.037,3.037,0,0,0,3.8,25.815" fill="none" stroke="#7473be" stroke-linecap="round" stroke-linejoin="round" stroke-width="1.519"/>
  </g>
</svg>
