<svg id="Group_339" data-name="Group 339" xmlns="http://www.w3.org/2000/svg" xmlns:xlink="http://www.w3.org/1999/xlink" width="41.48" height="44.937" viewBox="0 0 41.48 44.937">
  <defs>
    <clipPath id="clip-path">
      <rect id="Rectangle_177" data-name="Rectangle 177" width="41.48" height="44.937" fill="none" stroke="#0072ca" stroke-width="1.6"/>
    </clipPath>
  </defs>
  <g id="Group_339-2" data-name="Group 339" clip-path="url(#clip-path)">
    <path id="Path_469" data-name="Path 469" d="M24,39.023a5.18,5.18,0,0,0,9.063,3.434c.146.012.294.022.443.022a5.184,5.184,0,0,0,5.151-4.61,5.175,5.175,0,0,0,2.82-7.44A5.171,5.171,0,0,0,42.548,22.6a5.167,5.167,0,0,0-.763-7.611,5.168,5.168,0,0,0-3.108-6.785c.005-.1.015-.2.015-.3a5.185,5.185,0,0,0-5.185-5.185c-.15,0-.3.01-.443.022A5.18,5.18,0,0,0,24,6.185" transform="translate(-3.26 -0.136)" fill="none" stroke="#0072ca" stroke-linejoin="round" stroke-width="1.6"/>
    <path id="Path_470" data-name="Path 470" d="M20.876,39.023a5.18,5.18,0,0,1-9.063,3.434c-.146.012-.294.022-.443.022a5.183,5.183,0,0,1-5.151-4.61,5.175,5.175,0,0,1-2.82-7.44A5.171,5.171,0,0,1,2.328,22.6a5.167,5.167,0,0,1,.763-7.611A5.168,5.168,0,0,1,6.2,8.209c-.005-.1-.015-.2-.015-.3A5.185,5.185,0,0,1,11.37,2.728c.15,0,.3.01.443.022a5.18,5.18,0,0,1,9.063,3.434" transform="translate(-0.136 -0.136)" fill="none" stroke="#0072ca" stroke-linejoin="round" stroke-width="1.6"/>
    <path id="Path_471" data-name="Path 471" d="M2.537,26H8.5a.858.858,0,0,1,.8,1.18,3.8,3.8,0,0,0-.309,1.412,2.593,2.593,0,1,0,5.185,0,3.8,3.8,0,0,0-.309-1.412.859.859,0,0,1,.8-1.18h6.422" transform="translate(-0.345 -3.532)" fill="none" stroke="#0072ca" stroke-linecap="round" stroke-linejoin="round" stroke-width="1.6"/>
    <path id="Path_472" data-name="Path 472" d="M24,42.419V37.725a.858.858,0,0,1,1.18-.8,3.8,3.8,0,0,0,1.412.309,2.592,2.592,0,1,0,0-5.185,3.8,3.8,0,0,0-1.412.309.858.858,0,0,1-1.18-.8V26" transform="translate(-3.26 -3.532)" fill="none" stroke="#0072ca" stroke-linecap="round" stroke-linejoin="round" stroke-width="1.6"/>
    <path id="Path_473" data-name="Path 473" d="M42.548,25.185H36.589a.858.858,0,0,1-.8-1.18,3.8,3.8,0,0,0,.309-1.412,2.592,2.592,0,1,0-5.185,0A3.8,3.8,0,0,0,31.222,24a.859.859,0,0,1-.8,1.18H24" transform="translate(-3.26 -2.717)" fill="none" stroke="#0072ca" stroke-linecap="round" stroke-linejoin="round" stroke-width="1.6"/>
    <path id="Path_474" data-name="Path 474" d="M23.185,7v4.694a.858.858,0,0,1-1.18.8,3.8,3.8,0,0,0-1.412-.309,2.592,2.592,0,1,0,0,5.185A3.8,3.8,0,0,0,22,17.061a.858.858,0,0,1,1.18.8v5.558" transform="translate(-2.445 -0.951)" fill="none" stroke="#0072ca" stroke-linecap="round" stroke-linejoin="round" stroke-width="1.6"/>
    <path id="Path_475" data-name="Path 475" d="M17.321,45.321A4.321,4.321,0,0,1,13,41" transform="translate(-1.766 -5.569)" fill="none" stroke="#0072ca" stroke-linecap="round" stroke-linejoin="round" stroke-width="1.6"/>
    <path id="Path_476" data-name="Path 476" d="M12.321,40.321A4.321,4.321,0,0,1,8,36" transform="translate(-1.087 -4.89)" fill="none" stroke="#0072ca" stroke-linecap="round" stroke-linejoin="round" stroke-width="1.6"/>
    <path id="Path_477" data-name="Path 477" d="M19.457,38.457A3.457,3.457,0,0,1,16,35" transform="translate(-2.173 -4.754)" fill="none" stroke="#0072ca" stroke-linecap="round" stroke-linejoin="round" stroke-width="1.6"/>
    <path id="Path_478" data-name="Path 478" d="M39.321,36A4.321,4.321,0,0,1,35,40.321" transform="translate(-4.754 -4.89)" fill="none" stroke="#0072ca" stroke-linecap="round" stroke-linejoin="round" stroke-width="1.6"/>
    <path id="Path_479" data-name="Path 479" d="M34.321,41A4.321,4.321,0,0,1,30,45.321" transform="translate(-4.075 -5.569)" fill="none" stroke="#0072ca" stroke-linecap="round" stroke-linejoin="round" stroke-width="1.6"/>
    <path id="Path_480" data-name="Path 480" d="M32,30a3.457,3.457,0,0,1,3.457,3.457" transform="translate(-4.347 -4.075)" fill="none" stroke="#0072ca" stroke-linecap="round" stroke-linejoin="round" stroke-width="1.6"/>
    <path id="Path_481" data-name="Path 481" d="M30,6a4.321,4.321,0,0,1,4.321,4.321" transform="translate(-4.075 -0.815)" fill="none" stroke="#0072ca" stroke-linecap="round" stroke-linejoin="round" stroke-width="1.6"/>
    <path id="Path_482" data-name="Path 482" d="M35,11a4.321,4.321,0,0,1,4.321,4.321" transform="translate(-4.754 -1.494)" fill="none" stroke="#0072ca" stroke-linecap="round" stroke-linejoin="round" stroke-width="1.6"/>
    <path id="Path_483" data-name="Path 483" d="M28,13a3.457,3.457,0,0,1,3.457,3.457" transform="translate(-3.803 -1.766)" fill="none" stroke="#0072ca" stroke-linecap="round" stroke-linejoin="round" stroke-width="1.6"/>
    <path id="Path_484" data-name="Path 484" d="M8,15.321A4.321,4.321,0,0,1,12.321,11" transform="translate(-1.087 -1.494)" fill="none" stroke="#0072ca" stroke-linecap="round" stroke-linejoin="round" stroke-width="1.6"/>
    <path id="Path_485" data-name="Path 485" d="M13,10.321A4.321,4.321,0,0,1,17.321,6" transform="translate(-1.766 -0.815)" fill="none" stroke="#0072ca" stroke-linecap="round" stroke-linejoin="round" stroke-width="1.6"/>
    <path id="Path_486" data-name="Path 486" d="M15.457,21.457A3.457,3.457,0,0,1,12,18" transform="translate(-1.63 -2.445)" fill="none" stroke="#0072ca" stroke-linecap="round" stroke-linejoin="round" stroke-width="1.6"/>
  </g>
</svg>
