<svg xmlns="http://www.w3.org/2000/svg" xmlns:xlink="http://www.w3.org/1999/xlink" width="139.946" height="156.176" viewBox="0 0 139.946 156.176">
  <defs>
    <clipPath id="clip-path">
      <rect id="Rectangle_2" data-name="Rectangle 2" width="139.945" height="156.176" fill="none"/>
    </clipPath>
  </defs>
  <g id="B2_Logo" data-name="B2 Logo" transform="translate(0 0)">
    <path id="Path_1" data-name="Path 1" d="M0,0V123.455l69.438,32.721,70.508-32.721V0Z" fill="#00589b"/>
    <g id="Group_2" data-name="Group 2">
      <g id="Group_1" data-name="Group 1" clip-path="url(#clip-path)">
        <path id="Path_2" data-name="Path 2" d="M72.867,95.722V81.916c0-8.206,2.609-11.832,13.553-11.832h25.064c3.371,0,4.262-.956,4.262-4.135V64.867c0-3.373-.891-4.325-4.006-4.325H72.049V52.334h40.324c8.525,0,12.279,3.373,12.279,12.28v2.163c0,8.079-2.988,10.624-12.531,10.624H86.865c-3.947,0-5.154,1.081-5.154,4.9v5.216h42.941v8.207Z" fill="#fff"/>
        <path id="Path_3" data-name="Path 3" d="M15.853,52.309H52.8c9.961,0,13.816,2.636,13.816,9.96v3.6c0,5.138-1.992,7-4.756,7.774,3.151.642,5.334,2.632,5.334,9.123V86.62c0,6.942-3.793,9.511-13.752,9.511H15.853Zm9.768,7.966v10.09H52.992c3.406,0,4.5-.964,4.5-3.855V63.747c0-2.635-1.351-3.472-5.463-3.472Zm0,17.159V88.163h27.3c3.664,0,5.144-.834,5.144-3.534v-2.7c0-3.6-1.285-4.5-4.82-4.5Z" fill="#fff"/>
        <path id="Path_4" data-name="Path 4" d="M20.656,112.034a4.738,4.738,0,0,1,.258.677,4.609,4.609,0,0,1,.15.7,5.812,5.812,0,0,1-1.121.294,7.685,7.685,0,0,1-1.074.071,4.57,4.57,0,0,1-1.789-.324,3.553,3.553,0,0,1-1.289-.9A3.837,3.837,0,0,1,15,111.164a5.519,5.519,0,0,1-.264-1.74,5.38,5.38,0,0,1,.275-1.746,4.1,4.1,0,0,1,.8-1.394,3.6,3.6,0,0,1,1.283-.918,4.344,4.344,0,0,1,1.735-.329,7.413,7.413,0,0,1,1.062.07,4.826,4.826,0,0,1,1.051.294,2.627,2.627,0,0,1-.144.689c-.081.223-.168.449-.264.676a5.474,5.474,0,0,0-.744-.2,4.394,4.394,0,0,0-.768-.059,2.184,2.184,0,0,0-1.771.735,3.319,3.319,0,0,0-.618,2.182q0,2.869,2.485,2.869a4.586,4.586,0,0,0,.779-.059,5.042,5.042,0,0,0,.756-.2" fill="#fff"/>
        <path id="Path_5" data-name="Path 5" d="M26.189,113.776a3.958,3.958,0,0,1-1.682-.331,3.113,3.113,0,0,1-1.162-.911,3.9,3.9,0,0,1-.679-1.376,6.46,6.46,0,0,1-.221-1.734,6.594,6.594,0,0,1,.221-1.746,3.968,3.968,0,0,1,.679-1.394,3.109,3.109,0,0,1,1.162-.918,4.459,4.459,0,0,1,3.362,0,3.132,3.132,0,0,1,1.164.918,4,4,0,0,1,.677,1.394,6.511,6.511,0,0,1,.223,1.746,6.379,6.379,0,0,1-.223,1.734,3.928,3.928,0,0,1-.677,1.376,3.135,3.135,0,0,1-1.164.911,3.955,3.955,0,0,1-1.68.331m0-1.436q1.857,0,1.859-2.916a4.253,4.253,0,0,0-.449-2.188,1.528,1.528,0,0,0-1.4-.729q-1.884,0-1.885,2.917t1.873,2.916" fill="#fff"/>
        <path id="Path_6" data-name="Path 6" d="M32.285,105.178a6.2,6.2,0,0,1,.924-.071,5.943,5.943,0,0,1,.924.071l1.98,4.845,2.039-4.845a4.376,4.376,0,0,1,.828-.071,5.15,5.15,0,0,1,.875.071l.409,8.455a5.652,5.652,0,0,1-.864.07,4.578,4.578,0,0,1-.8-.07l-.215-5.739-1.752,3.975c-.114.016-.229.03-.348.041s-.24.018-.361.018c-.1,0-.207,0-.313-.012a2.408,2.408,0,0,1-.322-.047l-1.633-4.057-.168,5.821a4.117,4.117,0,0,1-.744.07,4.636,4.636,0,0,1-.791-.07Z" fill="#fff"/>
        <path id="Path_7" data-name="Path 7" d="M42.748,105.178a6.236,6.236,0,0,1,.924-.071,5.905,5.905,0,0,1,.924.071l1.98,4.845,2.041-4.845a4.354,4.354,0,0,1,.826-.071,5.174,5.174,0,0,1,.877.071l.408,8.455a5.655,5.655,0,0,1-.865.07,4.575,4.575,0,0,1-.8-.07l-.216-5.739-1.752,3.975c-.112.016-.229.03-.348.041s-.24.018-.359.018-.209,0-.313-.012a2.436,2.436,0,0,1-.324-.047l-1.631-4.057-.17,5.821a4.112,4.112,0,0,1-.742.07,4.642,4.642,0,0,1-.793-.07Z" fill="#fff"/>
        <path id="Path_8" data-name="Path 8" d="M52.924,105.178c.152-.023.3-.039.443-.048s.293-.011.446-.011c.134,0,.275,0,.42.011s.291.025.443.048v4.386a11.624,11.624,0,0,0,.055,1.229,2.585,2.585,0,0,0,.214.847,1.071,1.071,0,0,0,.458.494,1.59,1.59,0,0,0,.761.158,1.555,1.555,0,0,0,.756-.158,1.075,1.075,0,0,0,.449-.494,2.509,2.509,0,0,0,.217-.847,11.623,11.623,0,0,0,.055-1.229v-4.386c.16-.023.31-.039.455-.048s.285-.011.42-.011.291,0,.437.011.3.025.451.048v4.751a7.913,7.913,0,0,1-.144,1.569,3.042,3.042,0,0,1-.516,1.218,2.426,2.426,0,0,1-1,.782,4.667,4.667,0,0,1-3.168,0,2.426,2.426,0,0,1-1-.782,3.027,3.027,0,0,1-.515-1.218,7.909,7.909,0,0,1-.145-1.569Z" fill="#fff"/>
        <path id="Path_9" data-name="Path 9" d="M61.684,105.178a3.723,3.723,0,0,1,.707-.071,4.031,4.031,0,0,1,.744.071l3.336,5.386v-5.386a5.053,5.053,0,0,1,.828-.071,3.555,3.555,0,0,1,.721.071v8.455a3.881,3.881,0,0,1-.695.07,4.2,4.2,0,0,1-.733-.07l-3.361-5.374v5.374a4.308,4.308,0,0,1-.779.07,4.117,4.117,0,0,1-.768-.07Z" fill="#fff"/>
        <path id="Path_10" data-name="Path 10" d="M70.359,105.178a5.451,5.451,0,0,1,.875-.071,5.7,5.7,0,0,1,.889.071v8.455a5.747,5.747,0,0,1-.877.07,5.641,5.641,0,0,1-.887-.07Z" fill="#fff"/>
        <path id="Path_11" data-name="Path 11" d="M80.162,112.034a4.739,4.739,0,0,1,.258.677,4.609,4.609,0,0,1,.15.7,5.775,5.775,0,0,1-1.121.294,7.685,7.685,0,0,1-1.074.071,4.577,4.577,0,0,1-1.789-.324,3.553,3.553,0,0,1-1.289-.9,3.836,3.836,0,0,1-.787-1.382,5.519,5.519,0,0,1-.264-1.74,5.326,5.326,0,0,1,.277-1.746,4.064,4.064,0,0,1,.8-1.394,3.59,3.59,0,0,1,1.285-.918,4.34,4.34,0,0,1,1.733-.329,7.413,7.413,0,0,1,1.062.07,4.826,4.826,0,0,1,1.051.294,2.587,2.587,0,0,1-.144.689c-.081.223-.168.449-.264.676a5.474,5.474,0,0,0-.744-.2,4.394,4.394,0,0,0-.768-.059,2.184,2.184,0,0,0-1.771.735,3.319,3.319,0,0,0-.618,2.182q0,2.869,2.485,2.869a4.586,4.586,0,0,0,.779-.059,5.042,5.042,0,0,0,.756-.2" fill="#fff"/>
        <path id="Path_12" data-name="Path 12" d="M84.543,105.178c.168-.023.328-.042.481-.054s.318-.017.5-.017c.161,0,.315.006.467.017s.321.031.5.054l2.7,8.455a6.77,6.77,0,0,1-.961.071,5.49,5.49,0,0,1-.886-.071l-.481-1.693H84.016l-.492,1.693a5.178,5.178,0,0,1-.829.071,5.461,5.461,0,0,1-.877-.071Zm1.92,5.339-1-3.552-1.045,3.552Z" fill="#fff"/>
        <path id="Path_13" data-name="Path 13" d="M91.67,106.636H89.524a3.623,3.623,0,0,1-.073-.741,3.5,3.5,0,0,1,.073-.717h6.058a3.5,3.5,0,0,1,.072.717,3.625,3.625,0,0,1-.072.741H93.436v7c-.145.016-.289.029-.434.041s-.283.018-.42.018-.281,0-.437-.012-.315-.023-.475-.047Z" fill="#fff"/>
        <path id="Path_14" data-name="Path 14" d="M97.453,105.178a5.475,5.475,0,0,1,.877-.071,5.674,5.674,0,0,1,.887.071v8.455a5.591,5.591,0,0,1-1.764,0Z" fill="#fff"/>
        <path id="Path_15" data-name="Path 15" d="M105.074,113.776a3.958,3.958,0,0,1-1.682-.331,3.135,3.135,0,0,1-1.164-.911,3.928,3.928,0,0,1-.677-1.376,6.381,6.381,0,0,1-.221-1.734,6.512,6.512,0,0,1,.221-1.746,4,4,0,0,1,.677-1.394,3.132,3.132,0,0,1,1.164-.918,4.459,4.459,0,0,1,3.362,0,3.132,3.132,0,0,1,1.164.918,4,4,0,0,1,.677,1.394,6.512,6.512,0,0,1,.221,1.746,6.381,6.381,0,0,1-.221,1.734,3.928,3.928,0,0,1-.677,1.376,3.135,3.135,0,0,1-1.164.911,3.955,3.955,0,0,1-1.68.331m0-1.436q1.857,0,1.859-2.916a4.231,4.231,0,0,0-.451-2.188,1.523,1.523,0,0,0-1.4-.729q-1.884,0-1.885,2.917t1.873,2.916" fill="#fff"/>
        <path id="Path_16" data-name="Path 16" d="M110.93,105.178a3.723,3.723,0,0,1,.707-.071,4.031,4.031,0,0,1,.744.071l3.336,5.386v-5.386a5.052,5.052,0,0,1,.828-.071,3.555,3.555,0,0,1,.721.071v8.455a3.881,3.881,0,0,1-.695.07,4.2,4.2,0,0,1-.733-.07l-3.361-5.374v5.374a4.308,4.308,0,0,1-.779.07,4.117,4.117,0,0,1-.768-.07Z" fill="#fff"/>
        <path id="Path_17" data-name="Path 17" d="M121.178,109.717a5.269,5.269,0,0,1-.732-.335,2.156,2.156,0,0,1-.553-.436,1.786,1.786,0,0,1-.354-.6,2.846,2.846,0,0,1,.084-1.905,2.121,2.121,0,0,1,.594-.771,2.625,2.625,0,0,1,.924-.469,4.257,4.257,0,0,1,1.213-.16,5.787,5.787,0,0,1,1.146.107,8.764,8.764,0,0,1,1.121.305,4.091,4.091,0,0,1-.384,1.34c-.12-.047-.243-.093-.366-.14a3.165,3.165,0,0,0-.4-.119,4.562,4.562,0,0,0-.473-.076,5.679,5.679,0,0,0-.6-.029,2.561,2.561,0,0,0-.414.035,1.184,1.184,0,0,0-.377.13.717.717,0,0,0-.276.276.929.929,0,0,0-.109.476.855.855,0,0,0,.084.395.845.845,0,0,0,.228.27,1.432,1.432,0,0,0,.325.188c.119.051.24.1.359.147l.721.271c.3.117.58.239.828.364a2.218,2.218,0,0,1,.629.465,1.942,1.942,0,0,1,.4.67,2.841,2.841,0,0,1,.145.97,2.638,2.638,0,0,1-.223,1.094,2.372,2.372,0,0,1-.641.847,3.068,3.068,0,0,1-1.039.552,4.627,4.627,0,0,1-1.422.2c-.263,0-.5-.009-.707-.025a5.3,5.3,0,0,1-1.152-.211c-.186-.054-.377-.122-.576-.2a4.894,4.894,0,0,1,.131-.712q.1-.369.228-.746a6.544,6.544,0,0,0,.947.3,4.374,4.374,0,0,0,.95.1,2.179,2.179,0,0,0,1.187-.276.927.927,0,0,0,.432-.841.967.967,0,0,0-.1-.47,1.056,1.056,0,0,0-.263-.318,1.638,1.638,0,0,0-.366-.217c-.136-.059-.277-.116-.422-.171Z" fill="#fff"/>
      </g>
    </g>
  </g>
</svg>
