<svg xmlns="http://www.w3.org/2000/svg" xmlns:xlink="http://www.w3.org/1999/xlink" width="86" height="82.856" viewBox="0 0 86 82.856">
  <defs>
    <clipPath id="clip-path">
      <rect id="Rectangle_58" data-name="Rectangle 58" width="47.074" height="45.703" fill="none" stroke="#f3f5f6" stroke-width="1.5"/>
    </clipPath>
  </defs>
  <g id="Group_76" data-name="Group 76" transform="translate(-1063.5 -1896.073)">
    <path id="Path_299" data-name="Path 299" d="M130.077,995.859h86v62.612l-42.822,20.244-43.178-20.244Z" transform="translate(933.423 900.213)" fill="#7473be"/>
    <g id="icon" transform="translate(1083.463 1912)">
      <g id="Group_19" data-name="Group 19" transform="translate(0 0)">
        <g id="Group_18" data-name="Group 18" clip-path="url(#clip-path)">
          <path id="Path_231" data-name="Path 231" d="M12.291,11.63V3.5H41.118V31.213H12.291V15.283" transform="translate(5.242 1.494)" fill="none" stroke="#f3f5f6" stroke-linecap="round" stroke-linejoin="round" stroke-width="1.5"/>
          <line id="Line_2" data-name="Line 2" x2="28.828" transform="translate(17.532 27.889)" fill="none" stroke="#f3f5f6" stroke-linecap="round" stroke-linejoin="round" stroke-width="1.5"/>
          <path id="Path_232" data-name="Path 232" d="M15.777,35.212l9.44-12.283L34.61,35.163" transform="translate(6.729 9.778)" fill="none" stroke="#f3f5f6" stroke-linecap="round" stroke-linejoin="round" stroke-width="1.5"/>
          <line id="Line_3" data-name="Line 3" x2="45.647" transform="translate(0.713 44.948)" fill="none" stroke="#f3f5f6" stroke-linecap="round" stroke-linejoin="round" stroke-width="1.5"/>
        </g>
      </g>
      <path id="Path_233" data-name="Path 233" d="M15.378,21.833V14.2h4.279v7.632" transform="translate(6.558 6.056)" fill="none" stroke="#f3f5f6" stroke-linecap="round" stroke-linejoin="round" stroke-width="1.5"/>
      <path id="Path_234" data-name="Path 234" d="M20.9,24.617V7.674h4.279V24.617" transform="translate(8.911 3.273)" fill="none" stroke="#f3f5f6" stroke-linecap="round" stroke-linejoin="round" stroke-width="1.5"/>
      <path id="Path_235" data-name="Path 235" d="M26.413,23.147V11.119h4.279V23.147" transform="translate(11.265 4.742)" fill="none" stroke="#f3f5f6" stroke-linecap="round" stroke-linejoin="round" stroke-width="1.5"/>
      <g id="Group_21" data-name="Group 21" transform="translate(0 0)">
        <g id="Group_20" data-name="Group 20" clip-path="url(#clip-path)">
          <line id="Line_4" data-name="Line 4" y1="15.457" transform="translate(9.125 29.407)" fill="none" stroke="#f3f5f6" stroke-linecap="round" stroke-linejoin="round" stroke-width="1.5"/>
          <line id="Line_5" data-name="Line 5" x1="0.619" y1="26.378" transform="translate(4.457 18.486)" fill="none" stroke="#f3f5f6" stroke-linecap="round" stroke-linejoin="round" stroke-width="1.5"/>
          <rect id="Rectangle_59" data-name="Rectangle 59" width="6.135" height="7.031" rx="3.068" transform="translate(6.144 0.712)" fill="none" stroke="#f3f5f6" stroke-linecap="round" stroke-linejoin="round" stroke-width="1.5"/>
          <path id="Path_236" data-name="Path 236" d="M12.959,41.623l.619-28.1h7.68a3.587,3.587,0,0,0,3.586-3.586l-6.615.014a9.809,9.809,0,0,1-4.793-1.377A7.822,7.822,0,0,0,9.589,7.6H8.23A7.625,7.625,0,0,0,.5,15.61l.387,5.811c.2.9,1.76,1.546,3.522,1.608" transform="translate(0.213 3.242)" fill="none" stroke="#f3f5f6" stroke-linecap="round" stroke-linejoin="round" stroke-width="1.5"/>
        </g>
      </g>
    </g>
  </g>
</svg>
