<svg xmlns="http://www.w3.org/2000/svg" xmlns:xlink="http://www.w3.org/1999/xlink" width="86" height="82.856" viewBox="0 0 86 82.856">
  <defs>
    <clipPath id="clip-path">
      <rect id="Rectangle_61" data-name="Rectangle 61" width="46.226" height="46.191" fill="none" stroke="#f3f5f6" stroke-width="1.5"/>
    </clipPath>
  </defs>
  <g id="Group_78" data-name="Group 78" transform="translate(-631 -2256)">
    <path id="Path_301" data-name="Path 301" d="M130.077,995.859h86v62.612l-42.822,20.244-43.178-20.244Z" transform="translate(500.923 1260.141)" fill="#404956"/>
    <g id="Group_23" data-name="Group 23" transform="translate(650.887 2271.039)" clip-path="url(#clip-path)">
      <path id="Path_237" data-name="Path 237" d="M11.6,28.035a6.961,6.961,0,0,1,6.739-5" transform="translate(4.65 9.231)" fill="none" stroke="#f3f5f6" stroke-linecap="round" stroke-linejoin="round" stroke-width="1.5"/>
      <path id="Path_238" data-name="Path 238" d="M23.211,28.217a6.932,6.932,0,0,0-6.794-5.188" transform="translate(6.58 9.229)" fill="none" stroke="#f3f5f6" stroke-linecap="round" stroke-linejoin="round" stroke-width="1.5"/>
      <path id="Path_239" data-name="Path 239" d="M17.219,23.332h0A2.819,2.819,0,0,1,14.4,20.514V18.946a2.818,2.818,0,1,1,5.637,0v1.567A2.819,2.819,0,0,1,17.219,23.332Z" transform="translate(5.772 6.464)" fill="none" stroke="#f3f5f6" stroke-linecap="round" stroke-linejoin="round" stroke-width="1.5"/>
      <path id="Path_240" data-name="Path 240" d="M7.578,24.633h0a2.79,2.79,0,0,1-2.79-2.789V20.293a2.79,2.79,0,0,1,5.579,0v1.551A2.789,2.789,0,0,1,7.578,24.633Z" transform="translate(1.919 7.015)" fill="none" stroke="#f3f5f6" stroke-linecap="round" stroke-linejoin="round" stroke-width="1.5"/>
      <path id="Path_241" data-name="Path 241" d="M9,28.657,6.172,34.005H8.564" transform="translate(2.474 11.485)" fill="none" stroke="#f3f5f6" stroke-linecap="round" stroke-linejoin="round" stroke-width="1.5"/>
      <line id="Line_6" data-name="Line 6" x2="4.775" transform="translate(20.65 39.656)" fill="none" stroke="#f3f5f6" stroke-linecap="round" stroke-linejoin="round" stroke-width="1.5"/>
      <path id="Path_242" data-name="Path 242" d="M26.038,24.633h0a2.789,2.789,0,0,0,2.789-2.789V20.293a2.79,2.79,0,0,0-5.579,0v1.551A2.79,2.79,0,0,0,26.038,24.633Z" transform="translate(9.317 7.015)" fill="none" stroke="#f3f5f6" stroke-linecap="round" stroke-linejoin="round" stroke-width="1.5"/>
      <path id="Path_243" data-name="Path 243" d="M24.9,28.608l2.862,5.417H25.331" transform="translate(9.981 11.465)" fill="none" stroke="#f3f5f6" stroke-linecap="round" stroke-linejoin="round" stroke-width="1.5"/>
      <path id="Path_244" data-name="Path 244" d="M36.124,35.58S34.979,22.713,29.656,24.82c-1.811.766-4.575,2.83-9.747,3.065a1.731,1.731,0,0,0,.139,3.46,21.705,21.705,0,0,0,9.462-1.988" transform="translate(7.315 9.854)" fill="none" stroke="#f3f5f6" stroke-linecap="round" stroke-linejoin="round" stroke-width="1.5"/>
      <path id="Path_245" data-name="Path 245" d="M1.99,35.58S3.134,22.713,8.457,24.82c1.811.766,4.575,2.83,9.747,3.065a1.731,1.731,0,0,1-.139,3.46A21.705,21.705,0,0,1,8.6,29.357" transform="translate(0.798 9.854)" fill="none" stroke="#f3f5f6" stroke-linecap="round" stroke-linejoin="round" stroke-width="1.5"/>
      <path id="Path_246" data-name="Path 246" d="M25.2,2.975v7.591a2.471,2.471,0,0,1-2.475,2.475H14.873l-4.8,3.842V13.041H9.552a2.466,2.466,0,0,1-2.46-2.475V2.975A2.466,2.466,0,0,1,9.552.5H22.729A2.471,2.471,0,0,1,25.2,2.975Z" transform="translate(2.842 0.2)" fill="none" stroke="#f3f5f6" stroke-linecap="round" stroke-linejoin="round" stroke-width="1.5"/>
      <path id="Path_247" data-name="Path 247" d="M13.681,11.592v2.117a2.1,2.1,0,0,0,2.1,2.1h6.665l4.073,3.26v-3.26h.441a2.092,2.092,0,0,0,2.086-2.1V6.216a2.092,2.092,0,0,0-2.086-2.1h-4.4" transform="translate(5.483 1.649)" fill="none" stroke="#f3f5f6" stroke-linecap="round" stroke-linejoin="round" stroke-width="1.5"/>
      <line id="Line_7" data-name="Line 7" x2="44.825" transform="translate(0.7 45.49)" fill="none" stroke="#f3f5f6" stroke-linecap="round" stroke-linejoin="round" stroke-width="1.5"/>
      <line id="Line_8" data-name="Line 8" transform="translate(15.766 7.212)" fill="none" stroke="#f3f5f6" stroke-linecap="round" stroke-linejoin="round" stroke-width="1.5"/>
      <line id="Line_9" data-name="Line 9" transform="translate(18.99 7.24)" fill="none" stroke="#f3f5f6" stroke-linecap="round" stroke-linejoin="round" stroke-width="1.5"/>
      <line id="Line_10" data-name="Line 10" transform="translate(22.215 7.269)" fill="none" stroke="#f3f5f6" stroke-linecap="round" stroke-linejoin="round" stroke-width="1.5"/>
    </g>
  </g>
</svg>
