<svg xmlns="http://www.w3.org/2000/svg" width="86" height="82.856" viewBox="0 0 86 82.856">
  <g id="Group_75" data-name="Group 75" transform="translate(-631 -1896.073)">
    <path id="Path_298" data-name="Path 298" d="M130.077,995.859h86v62.612l-42.822,20.244-43.178-20.244Z" transform="translate(500.923 900.213)" fill="#0065c5"/>
    <g id="icon" transform="translate(647.318 1912.318)">
      <g id="Group_61" data-name="Group 61" transform="translate(0.682 0.682)">
        <path id="Path_260" data-name="Path 260" d="M12.382,17.869a14.21,14.21,0,0,1,.045-1.456,13.04,13.04,0,0,1,11.242-11.8,13.3,13.3,0,0,1,3.973.093,13.3,13.3,0,0,0-3.973-.093,13.04,13.04,0,0,0-11.242,11.8A14.21,14.21,0,0,0,12.382,17.869Z" transform="translate(0.864 -0.04)" fill="none" stroke="#f3f5f6" stroke-miterlimit="10" stroke-width="1.5"/>
        <path id="Path_261" data-name="Path 261" d="M37.785,16.225a12.784,12.784,0,0,1-3.792,9.192,9.709,9.709,0,0,0-2.963,6.9v2.249h-12.5V31.982a8.655,8.655,0,0,0-1.069-4.147,8.655,8.655,0,0,1,1.069,4.147v2.584h12.5V32.317a9.709,9.709,0,0,1,2.963-6.9A12.784,12.784,0,0,0,37.785,16.225Z" transform="translate(1.447 1.306)" fill="none" stroke="#f3f5f6" stroke-miterlimit="10" stroke-width="1.5"/>
        <path id="Path_262" data-name="Path 262" d="M18.419,32.677h12.5v5.1L27.43,39.847l-1.057,1.863h-3.4l-1.057-1.863-3.495-2.071Z" transform="translate(1.557 3.195)" fill="none" stroke="#f3f5f6" stroke-miterlimit="10" stroke-width="1.5"/>
        <circle id="Ellipse_3" data-name="Ellipse 3" cx="4.378" cy="4.378" r="4.378" transform="translate(21.86 13.153)" fill="none" stroke="#f3f5f6" stroke-miterlimit="10" stroke-width="1.5"/>
        <path id="Path_263" data-name="Path 263" d="M17.972,16.225h0Z" transform="translate(1.506 1.306)" fill="none" stroke="#f3f5f6" stroke-miterlimit="10" stroke-width="1.5"/>
        <path id="Path_264" data-name="Path 264" d="M28.222,16.225h0Z" transform="translate(2.683 1.306)" fill="none" stroke="#f3f5f6" stroke-miterlimit="10" stroke-width="1.5"/>
        <path id="Path_265" data-name="Path 265" d="M19.748,20.665l1.479-1.479Z" transform="translate(1.71 1.646)" fill="none" stroke="#f3f5f6" stroke-miterlimit="10" stroke-width="1.5"/>
        <path id="Path_266" data-name="Path 266" d="M27,13.417l1.479-1.479Z" transform="translate(2.542 0.813)" fill="none" stroke="#f3f5f6" stroke-miterlimit="10" stroke-width="1.5"/>
        <path id="Path_267" data-name="Path 267" d="M24.035,22.5v0Z" transform="translate(2.202 1.786)" fill="none" stroke="#f3f5f6" stroke-miterlimit="10" stroke-width="1.5"/>
        <path id="Path_268" data-name="Path 268" d="M24.035,12.255v0Z" transform="translate(2.202 0.609)" fill="none" stroke="#f3f5f6" stroke-miterlimit="10" stroke-width="1.5"/>
        <path id="Path_269" data-name="Path 269" d="M28.475,20.665,27,19.186Z" transform="translate(2.542 1.646)" fill="none" stroke="#f3f5f6" stroke-miterlimit="10" stroke-width="1.5"/>
        <path id="Path_270" data-name="Path 270" d="M21.227,13.417l-1.479-1.479Z" transform="translate(1.71 0.813)" fill="none" stroke="#f3f5f6" stroke-miterlimit="10" stroke-width="1.5"/>
        <rect id="Rectangle_63" data-name="Rectangle 63" width="15.83" height="11.308" transform="translate(0 21.444)" fill="none" stroke="#f3f5f6" stroke-miterlimit="10" stroke-width="1.5"/>
        <path id="Path_271" data-name="Path 271" d="M.646,29.172l5.386-4.366,5.091,5.477L6.031,24.806Z" transform="translate(-0.483 2.291)" fill="none" stroke="#f3f5f6" stroke-miterlimit="10" stroke-width="1.5"/>
        <path id="Path_272" data-name="Path 272" d="M15.46,29.1l-4.615-3.633-2.76,2.395,2.76-2.395Z" transform="translate(0.371 2.366)" fill="none" stroke="#f3f5f6" stroke-miterlimit="10" stroke-width="1.5"/>
        <path id="Path_273" data-name="Path 273" d="M29.632.5V9.546h4.341V14.79h.1l3.647-5.244h9.932V.5Z" transform="translate(2.845 -0.5)" fill="none" stroke="#f3f5f6" stroke-miterlimit="10" stroke-width="1.5"/>
        <path id="Path_274" data-name="Path 274" d="M32.707,4.557h0Z" transform="translate(3.198 -0.034)" fill="none" stroke="#f3f5f6" stroke-miterlimit="10" stroke-width="1.5"/>
        <path id="Path_275" data-name="Path 275" d="M36.764,4.557h0Z" transform="translate(3.664 -0.034)" fill="none" stroke="#f3f5f6" stroke-miterlimit="10" stroke-width="1.5"/>
        <path id="Path_276" data-name="Path 276" d="M40.821,4.557h0Z" transform="translate(4.13 -0.034)" fill="none" stroke="#f3f5f6" stroke-miterlimit="10" stroke-width="1.5"/>
        <circle id="Ellipse_4" data-name="Ellipse 4" cx="3.392" cy="3.392" r="3.392" transform="translate(39.297 29.801)" fill="none" stroke="#f3f5f6" stroke-miterlimit="10" stroke-width="1.5"/>
        <path id="Path_277" data-name="Path 277" d="M10.787,3.236A2.261,2.261,0,1,1,8.525.975,2.262,2.262,0,0,1,10.787,3.236Z" transform="translate(0.162 -0.445)" fill="none" stroke="#f3f5f6" stroke-miterlimit="10" stroke-width="1.5"/>
        <path id="Path_278" data-name="Path 278" d="M3.411,12.8h0Z" transform="translate(-0.166 0.913)" fill="none" stroke="#f3f5f6" stroke-miterlimit="10" stroke-width="1.5"/>
        <path id="Path_279" data-name="Path 279" d="M16.925.5h0Z" transform="translate(1.386 -0.5)" fill="none" stroke="#f3f5f6" stroke-miterlimit="10" stroke-width="1.5"/>
        <path id="Path_280" data-name="Path 280" d="M41.36,20.851V14.066l5.922,3.392Z" transform="translate(4.192 1.058)" fill="none" stroke="#f3f5f6" stroke-miterlimit="10" stroke-width="1.5"/>
      </g>
    </g>
  </g>
</svg>
