<svg xmlns="http://www.w3.org/2000/svg" xmlns:xlink="http://www.w3.org/1999/xlink" width="86" height="82.856" viewBox="0 0 86 82.856">
  <defs>
    <clipPath id="clip-path">
      <rect id="Rectangle_65" data-name="Rectangle 65" width="47" height="47" transform="translate(-0.315 -0.315)" fill="none" stroke="#f3f5f6" stroke-width="1.5"/>
    </clipPath>
  </defs>
  <g id="Group_79" data-name="Group 79" transform="translate(-1063.5 -2256)">
    <path id="Path_302" data-name="Path 302" d="M130.077,995.859h86v62.612l-42.822,20.244-43.178-20.244Z" transform="translate(933.423 1260.141)" fill="#f9b00d"/>
    <g id="icon" transform="translate(1083.39 2271.381)">
      <g id="Group_29" data-name="Group 29" transform="translate(-0.074 -0.066)" clip-path="url(#clip-path)">
        <path id="Path_281" data-name="Path 281" d="M10.685,13.167,9.38,17.676,6.463,13.167l.041-.014A6.331,6.331,0,0,1,6.828.5H39.093a6.339,6.339,0,0,1,4.475,10.816,6.218,6.218,0,0,1-3.6,1.781l-4.1,4.874.044-4.8H10.685Z" transform="translate(0.249 0.246)" fill="none" stroke="#f3f5f6" stroke-linecap="round" stroke-linejoin="round" stroke-width="1.5"/>
        <line id="Line_14" data-name="Line 14" x2="9.012" transform="translate(29.204 5.249)" fill="none" stroke="#f3f5f6" stroke-linecap="round" stroke-linejoin="round" stroke-width="1.5"/>
        <line id="Line_15" data-name="Line 15" x2="14.064" transform="translate(9.213 5.249)" fill="none" stroke="#f3f5f6" stroke-linecap="round" stroke-linejoin="round" stroke-width="1.5"/>
        <line id="Line_16" data-name="Line 16" x1="4.954" transform="translate(9.27 8.909)" fill="none" stroke="#f3f5f6" stroke-linecap="round" stroke-linejoin="round" stroke-width="1.5"/>
        <line id="Line_17" data-name="Line 17" x1="18.031" transform="translate(20.15 8.909)" fill="none" stroke="#f3f5f6" stroke-linecap="round" stroke-linejoin="round" stroke-width="1.5"/>
        <path id="Path_282" data-name="Path 282" d="M7.669,25.764c0,3.039,7.233,3.039,7.233,0" transform="translate(3.143 10.445)" fill="none" stroke="#f3f5f6" stroke-linecap="round" stroke-linejoin="round" stroke-width="1.5"/>
        <path id="Path_283" data-name="Path 283" d="M14.51,23.547c-2.259,1.5-4.05,1.581-6.51,0" transform="translate(3.277 9.55)" fill="none" stroke="#f3f5f6" stroke-linecap="round" stroke-linejoin="round" stroke-width="1.5"/>
        <path id="Path_284" data-name="Path 284" d="M23.834,32.311a6.018,6.018,0,0,0-2.652-1.405c-1.011-.243-2.136-.518-3.324-.814a2.1,2.1,0,0,1-1.48-1.335c-.02-.053-.038-.107-.058-.161a1.126,1.126,0,0,1,.392-1.432,5.218,5.218,0,0,0,2.361-3.193c.239-.786.431-4.707-.358-6.227C16.679,13.814,8.4,14.061,8.4,20.615a16.426,16.426,0,0,0,.17,3.355,5.2,5.2,0,0,0,2.341,3.184c.51.289.38.894.18,1.44-.024.069-.049.136-.074.2a2.1,2.1,0,0,1-1.467,1.3c-1.175.293-2.291.566-3.295.807A6.025,6.025,0,0,0,1.641,36.77v2.6" transform="translate(0.71 6.164)" fill="none" stroke="#f3f5f6" stroke-linecap="round" stroke-linejoin="round" stroke-width="1.5"/>
        <path id="Path_285" data-name="Path 285" d="M21.072,26.295c0,2.8,6.655,2.8,6.655,0" transform="translate(8.554 10.66)" fill="none" stroke="#f3f5f6" stroke-linecap="round" stroke-linejoin="round" stroke-width="1.5"/>
        <path id="Path_286" data-name="Path 286" d="M27.367,24.255c-2.078,1.383-3.727,1.454-5.99,0" transform="translate(8.677 9.836)" fill="none" stroke="#f3f5f6" stroke-linecap="round" stroke-linejoin="round" stroke-width="1.5"/>
        <path id="Path_287" data-name="Path 287" d="M37.752,38.817v-2.4A5.541,5.541,0,0,0,33.5,31.025c-.929-.223-1.965-.476-3.056-.748a1.937,1.937,0,0,1-1.363-1.228c-.018-.049-.035-.1-.053-.149a1.036,1.036,0,0,1,.361-1.317,4.8,4.8,0,0,0,2.172-2.939c.22-.723.4-4.33-.328-5.729-1.874-3.615-9.488-3.387-9.488,2.642a15.149,15.149,0,0,0,.156,3.087,4.785,4.785,0,0,0,2.155,2.928c.469.267.35.823.166,1.327-.022.063-.046.125-.069.187a1.934,1.934,0,0,1-1.349,1.2c-1.082.271-2.108.521-3.032.743a5.541,5.541,0,0,0-4.249,5.393v2.4" transform="translate(6.315 6.721)" fill="none" stroke="#f3f5f6" stroke-linecap="round" stroke-linejoin="round" stroke-width="1.5"/>
        <line id="Line_18" data-name="Line 18" x2="44.919" transform="translate(0.749 45.669)" fill="none" stroke="#f3f5f6" stroke-linecap="round" stroke-linejoin="round" stroke-width="1.5"/>
      </g>
    </g>
  </g>
</svg>
